<?xml version="1.0" encoding="utf-8"?>
<!-- Generator: Adobe Illustrator 24.0.1, SVG Export Plug-In . SVG Version: 6.00 Build 0)  -->
<svg version="1.1" id="Layer_1" xmlns="http://www.w3.org/2000/svg" xmlns:xlink="http://www.w3.org/1999/xlink" x="0px" y="0px"
	 viewBox="0 0 128 128" style="enable-background:new 0 0 128 128;" xml:space="preserve">
<style type="text/css">
	.st0{enable-background:new    ;}
	.st1{fill:#3783C5;}
</style>
<g id="Group_80_3_" transform="translate(-349 -3646)">
	<g class="st0">
		<path class="st1" d="M402.2,3708.1c0,5.3-1,9.9-3,14c-2,4.1-4.8,7.3-8.4,9.6c-3.5,2.3-7.6,3.5-12,3.5c-4.5,0-8.5-1.2-12-3.5
			c-3.5-2.3-6.3-5.5-8.4-9.6c-2-4.1-3-8.8-3-14c0-5.3,1-9.9,3-14c2-4.1,4.8-7.3,8.4-9.7c3.5-2.4,7.6-3.5,12-3.5
			c4.5,0,8.5,1.2,12,3.5c3.5,2.4,6.3,5.6,8.4,9.7C401.2,3698.2,402.2,3702.9,402.2,3708.1z M389.9,3708.1c0-3.2-0.5-6-1.4-8.4
			c-0.9-2.4-2.3-4.3-4-5.6c-1.7-1.4-3.6-2-5.8-2c-2.2,0-4.2,0.7-5.9,2c-1.7,1.4-3,3.2-4,5.6c-0.9,2.4-1.4,5.2-1.4,8.4
			c0,3.2,0.5,6,1.4,8.3c0.9,2.4,2.3,4.2,4,5.6c1.7,1.4,3.7,2,5.9,2c2.2,0,4.1-0.7,5.8-2c1.7-1.4,3-3.2,4-5.6
			C389.4,3714,389.9,3711.3,389.9,3708.1z"/>
		<path class="st1" d="M449.3,3723.3v11h-36.9v-11h12.9v-27.5c-0.5,0.7-1.4,1.5-2.5,2.2c-1.2,0.8-2.5,1.5-3.9,2.1
			c-1.5,0.7-2.9,1.2-4.4,1.6c-1.5,0.4-2.8,0.6-3.9,0.6v-11.4c1.1,0,2.4-0.3,4-1c1.5-0.7,3.1-1.5,4.6-2.5c1.5-1,2.9-1.9,4-2.9
			c1.1-0.9,1.8-1.7,2.1-2.2h12.4v40.9H449.3z"/>
	</g>
	<g id="Path_406_3_">
		<path class="st1" d="M476.4,3646h-13.9v112.9H349.6v15.1h126.7V3646z"/>
	</g>
</g>
</svg>
