<?xml version="1.0" encoding="utf-8"?>
<!-- Generator: Adobe Illustrator 24.0.1, SVG Export Plug-In . SVG Version: 6.00 Build 0)  -->
<svg version="1.1" id="Layer_1" xmlns="http://www.w3.org/2000/svg" xmlns:xlink="http://www.w3.org/1999/xlink" x="0px" y="0px"
	 viewBox="0 0 128 128" style="enable-background:new 0 0 128 128;" xml:space="preserve">
<style type="text/css">
	.st0{fill:#DB2258;}
	.st1{enable-background:new    ;}
</style>
<g>
	<g id="Path_407_2_">
		<path class="st0" d="M127.4,0h-13.9v112.9H0.6V128h126.7V0z"/>
	</g>
	<g class="st1">
		<path class="st0" d="M48.9,62.9c0,5.3-1,10-3.1,14.2c-2.1,4.1-4.9,7.4-8.5,9.7c-3.6,2.4-7.6,3.5-12.2,3.5c-4.5,0-8.6-1.2-12.2-3.5
			c-3.6-2.4-6.4-5.6-8.5-9.7c-2.1-4.1-3.1-8.9-3.1-14.2s1-10,3.1-14.2c2.1-4.1,4.9-7.4,8.5-9.8c3.6-2.4,7.6-3.6,12.2-3.6
			c4.5,0,8.6,1.2,12.2,3.6c3.6,2.4,6.4,5.6,8.5,9.8C47.8,52.8,48.9,57.5,48.9,62.9z M36.4,62.9c0-3.2-0.5-6-1.4-8.5
			c-1-2.4-2.3-4.3-4-5.7c-1.7-1.4-3.7-2.1-5.9-2.1c-2.3,0-4.3,0.7-6,2.1c-1.7,1.4-3,3.3-4,5.7c-1,2.4-1.4,5.2-1.4,8.5
			c0,3.2,0.5,6,1.4,8.4c0.9,2.4,2.3,4.3,4,5.6c1.7,1.4,3.7,2.1,6,2.1c2.2,0,4.2-0.7,5.8-2.1c1.7-1.4,3-3.3,4-5.7
			C36,68.8,36.4,66,36.4,62.9z"/>
		<path class="st0" d="M56.9,89.4c0-2.8,0.2-5.3,0.6-7.5c0.4-2.2,1.2-4.3,2.3-6.2c1.1-1.9,2.5-3.7,4.4-5.4c1.9-1.7,4.2-3.4,7.1-5
			c2.5-1.4,4.7-2.6,6.6-3.6c1.9-1,3.5-2,4.8-2.8c1.3-0.9,2.3-1.8,3-2.7c0.7-0.9,1-1.9,1-3.1c0-1.3-0.3-2.4-1-3.5
			c-0.7-1-1.6-1.9-2.8-2.5c-1.2-0.6-2.8-0.9-4.6-0.9c-1.5,0-2.8,0.2-4.1,0.6c-1.3,0.4-2.4,0.9-3.5,1.6c-1.1,0.7-2.1,1.4-3,2.3
			c-0.9,0.8-1.7,1.7-2.5,2.6l-7.8-9c0.9-0.9,2-1.8,3.4-2.8c1.4-1,3.2-2,5.1-2.8c2-0.9,4.2-1.6,6.6-2.2c2.4-0.6,5-0.9,7.8-0.9
			c4.2,0,7.7,0.7,10.7,2c2.9,1.3,5.2,3.2,6.8,5.5c1.6,2.4,2.3,5.1,2.3,8.3c0,2.2-0.4,4.1-1.2,5.8c-0.8,1.7-1.8,3.2-3,4.4
			c-1.2,1.3-2.6,2.4-4,3.4c-1.4,1-2.8,1.9-4.2,2.6c-1.9,1-3.6,1.9-5.1,2.8c-1.5,0.8-2.9,1.7-4,2.5c-1.2,0.8-2.2,1.7-3.1,2.6
			c-0.9,0.9-1.7,1.9-2.3,3h28v11.1H56.9z"/>
	</g>
</g>
</svg>
