<?xml version="1.0" encoding="utf-8"?>
<!-- Generator: Adobe Illustrator 24.0.1, SVG Export Plug-In . SVG Version: 6.00 Build 0)  -->
<svg version="1.1" id="Layer_1" xmlns="http://www.w3.org/2000/svg" xmlns:xlink="http://www.w3.org/1999/xlink" x="0px" y="0px"
	 viewBox="0 0 128 128" style="enable-background:new 0 0 128 128;" xml:space="preserve">
<style type="text/css">
	.st0{enable-background:new    ;}
	.st1{fill:#F26923;}
</style>
<g id="Group_79_3_" transform="translate(-349 -3646)">
	<g class="st0">
		<path class="st1" d="M401.6,3702.4c0,5.3-1,10-3.1,14.2c-2.1,4.1-4.9,7.4-8.5,9.7c-3.6,2.4-7.6,3.5-12.2,3.5
			c-4.5,0-8.6-1.2-12.2-3.5c-3.6-2.4-6.4-5.6-8.5-9.7c-2.1-4.1-3.1-8.9-3.1-14.2c0-5.3,1-10,3.1-14.2c2.1-4.1,4.9-7.4,8.5-9.8
			c3.6-2.4,7.6-3.6,12.2-3.6c4.5,0,8.6,1.2,12.2,3.6c3.6,2.4,6.4,5.6,8.5,9.8C400.5,3692.4,401.6,3697.1,401.6,3702.4z
			 M389.2,3702.4c0-3.2-0.5-6-1.4-8.5c-1-2.4-2.3-4.3-4-5.7c-1.7-1.4-3.7-2.1-5.9-2.1c-2.3,0-4.3,0.7-6,2.1c-1.7,1.4-3,3.3-4,5.7
			c-1,2.4-1.4,5.2-1.4,8.5c0,3.2,0.5,6,1.4,8.4c0.9,2.4,2.3,4.3,4,5.6c1.7,1.4,3.7,2.1,6,2.1c2.2,0,4.2-0.7,5.8-2.1
			c1.7-1.4,3-3.3,4-5.7C388.7,3708.3,389.2,3705.6,389.2,3702.4z"/>
		<path class="st1" d="M441.1,3706.6c2.6,0.4,4.8,1.4,6.7,2.9c1.9,1.5,3.4,3.5,4.5,5.8c1.1,2.4,1.6,5,1.6,7.9c0,3.9-1,7.2-2.9,10.1
			c-2,2.9-4.7,5.1-8.3,6.7c-3.6,1.6-7.8,2.4-12.6,2.4c-4.7,0-8.8-0.8-12.4-2.3c-3.6-1.5-6.6-3.7-9-6.6l7-8.7c1.6,2,3.5,3.5,5.7,4.6
			c2.2,1.1,5,1.7,8.2,1.7c3.7,0,6.6-0.8,8.5-2.3c2-1.6,2.9-3.9,2.9-7c0-3.3-1.1-5.8-3.4-7.6c-2.3-1.8-5.7-2.7-10.3-2.7h-2.6v-9.2
			h2.8c3.7,0,6.7-0.9,8.8-2.6c2.1-1.8,3.2-4,3.2-6.6c0-1.7-0.4-3.1-1.2-4.3c-0.8-1.1-1.9-2-3.3-2.6c-1.4-0.6-3-0.9-4.8-0.9
			c-2.8,0-5.3,0.6-7.5,1.9c-2.3,1.3-4.1,3.1-5.5,5.4l-7.7-8.6c1.3-1.9,3-3.5,5.3-4.9c2.2-1.4,4.8-2.5,7.7-3.3c2.9-0.8,6-1.2,9.1-1.2
			c4.2,0,7.8,0.7,11,2.1c3.2,1.4,5.6,3.3,7.4,5.8c1.8,2.5,2.7,5.4,2.7,8.7c0,2.4-0.5,4.7-1.5,6.9c-1,2.2-2.3,4-4.1,5.5
			C445.5,3705.2,443.4,3706.1,441.1,3706.6z"/>
	</g>
	<g id="Path_408_3_">
		<path class="st1" d="M476.4,3646h-13.9v112.9H349.6v15.1h126.7V3646z"/>
	</g>
</g>
</svg>
