<?xml version="1.0" encoding="utf-8"?>
<!-- Generator: Adobe Illustrator 24.0.1, SVG Export Plug-In . SVG Version: 6.00 Build 0)  -->
<svg version="1.1" id="Layer_1" xmlns="http://www.w3.org/2000/svg" xmlns:xlink="http://www.w3.org/1999/xlink" x="0px" y="0px"
	 viewBox="0 0 128 128" style="enable-background:new 0 0 128 128;" xml:space="preserve">
<style type="text/css">
	.st0{fill:#63BC54;}
	.st1{enable-background:new    ;}
</style>
<g id="Group_78" transform="translate(-349 -3646)">
	<g id="Path_409">
		<path class="st0" d="M476.4,3646h-13.9v112.9H349.6v15.1h126.7V3646z"/>
	</g>
	<g class="st1">
		<path class="st0" d="M399,3710.4c0,5.4-1.1,10.3-3.1,14.5c-2.1,4.2-5,7.5-8.6,10c-3.7,2.4-7.8,3.6-12.5,3.6
			c-4.6,0-8.8-1.2-12.5-3.6c-3.7-2.4-6.5-5.7-8.6-10c-2.1-4.2-3.1-9.1-3.1-14.5s1-10.3,3.1-14.5c2.1-4.2,5-7.6,8.6-10
			c3.7-2.4,7.8-3.7,12.5-3.7c4.6,0,8.8,1.2,12.5,3.7c3.7,2.4,6.5,5.8,8.6,10C398,3700.1,399,3704.9,399,3710.4z M386.3,3710.3
			c0-3.3-0.5-6.2-1.5-8.7c-1-2.5-2.3-4.4-4.1-5.8c-1.8-1.4-3.8-2.1-6-2.1c-2.3,0-4.4,0.7-6.1,2.1c-1.8,1.4-3.1,3.3-4.1,5.8
			c-1,2.5-1.5,5.4-1.5,8.7c0,3.3,0.5,6.2,1.5,8.6c1,2.4,2.3,4.4,4.1,5.8c1.8,1.4,3.8,2.1,6.1,2.1c2.3,0,4.2-0.7,6-2.1
			c1.7-1.4,3.1-3.3,4.1-5.8C385.8,3716.4,386.3,3713.6,386.3,3710.3z"/>
		<path class="st0" d="M433,3749.4v-14h-27.5v-11.2l31.5-40.4h8.6v40.3h8.3v11.3h-8.3v14H433z M418.1,3724.1h16.3v-21.2
			L418.1,3724.1z"/>
	</g>
</g>
</svg>
