<?xml version="1.0" encoding="utf-8"?>
<!-- Generator: Adobe Illustrator 24.0.1, SVG Export Plug-In . SVG Version: 6.00 Build 0)  -->
<svg version="1.1" id="Layer_1" xmlns="http://www.w3.org/2000/svg" xmlns:xlink="http://www.w3.org/1999/xlink" x="0px" y="0px"
	 viewBox="0 0 480 77.2" style="enable-background:new 0 0 480 77.2;" xml:space="preserve">
<style type="text/css">
	.st0{fill:#FFFFFF;}
	.st1{fill:#ADEFD1;}
</style>
<g>
	<path class="st0" d="M1.4,53.5c-0.2-0.1-0.3-0.8-0.4-2.2C1,50,1,48.2,1,46s0.1-4.8,0.2-7.7s0.2-5.9,0.3-9.1
		c0.1-3.2,0.3-6.4,0.4-9.6s0.3-6.3,0.4-9.1C2,9.4,1.8,8.4,1.8,7.4s0.4-1.7,1.1-2.1L3,5.2L3.6,5h0.1C4,5,4.2,4.9,4.4,4.9
		c0.2,0,0.5,0,0.7,0c1.6-0.1,3-0.2,4.3-0.3c1.3-0.1,2.4-0.1,3.5-0.2c1.1,0,2.1,0,3.1,0s2,0.1,3.1,0.3c2.5,0.3,5.1,0.7,7.8,1.2
		c2.6,0.5,5.1,1.5,7.4,2.8c2.3,1.4,4.2,3.3,5.8,5.8s2.7,5.9,3.3,10.3c0.7,5.3,0.5,10.1-0.7,14.4c-1.1,4.3-3.1,7.8-5.8,10.7
		s-6.2,4.9-10.4,6.1c-4.2,1.2-9,1.4-14.4,0.7c-0.5,0.1-1,0.1-1.8,0c-0.7-0.1-1.5-0.2-2.3-0.4s-1.6-0.4-2.4-0.7
		c-0.8-0.2-1.5-0.5-2.2-0.8L3,54.6c-0.2-0.1-0.3-0.2-0.5-0.2c-0.1,0-0.2-0.1-0.3-0.2C1.7,53.9,1.4,53.7,1.4,53.5z M13.7,12.8
		c-0.2,2.3-0.3,5-0.4,8.1c-0.1,3.1-0.2,6.3-0.3,9.5c-0.1,3.3-0.2,6.5-0.2,9.6s-0.1,5.9-0.1,8.4c1.1,0.4,2.2,0.7,3.3,0.8
		s2.2,0,3.2-0.3c2.9-0.9,5.3-2,7.1-3.6c1.8-1.5,3.1-3.2,4-5.1c0.9-1.9,1.5-3.8,1.7-5.9c0.2-2.1,0.2-4.2,0.1-6.3
		c-0.1-2-0.5-4-1.2-5.9s-1.7-3.6-3.2-5c-1.4-1.4-3.3-2.5-5.5-3.3C19.8,13,17.1,12.7,13.7,12.8z"/>
	<path class="st0" d="M62.5,25c0.1-0.6,0.8-1,1.9-1c1.1,0,2.3,0.1,3.6,0.4c1.3,0.3,2.4,0.8,3.4,1.4s1.4,1.1,1.3,1.7
		c-0.1,0.8-0.3,1.8-0.6,3.1c-0.2,1.3-0.5,2.7-0.7,4.2s-0.4,3-0.5,4.5s-0.1,2.9,0,4.1c0.1,1.2,0.3,2.3,0.6,3c0.3,0.8,0.8,1.2,1.5,1.2
		c0.6,0,1.2-0.3,1.9-1c0.7-0.7,1.4-1.5,2-2.5c0.7-1,1.4-2.2,2-3.5c0.7-1.3,1.3-2.6,1.9-4c0.6-1.3,1.1-2.6,1.5-3.8
		c0.5-1.2,0.8-2.3,1-3.2c0.3-1,0.7-1.6,1.4-2c0.7-0.4,1.4-0.5,2-0.5c0.7,0.1,1.2,0.4,1.7,0.9c0.4,0.5,0.6,1.2,0.4,2.1
		c-0.7,2.9-1.6,5.9-2.7,8.8c-1.1,2.9-2.2,5.5-3.5,7.8s-2.7,4.2-4.2,5.6c-1.5,1.4-3.1,2-4.7,1.9c-1.1-0.1-2-0.2-2.8-0.4
		s-1.5-0.5-2.2-0.8s-1.3-0.8-1.9-1.3s-1.3-1.1-2-1.8c-0.3-0.3-0.6-0.7-0.9-1.2c-0.3-0.5-0.5-1.2-0.7-2c-0.9,2.3-2,4.2-3.2,5.6
		c-1.2,1.4-2.7,2-4.2,1.8c-1.1-0.1-2-0.2-2.8-0.4s-1.4-0.5-2-0.8s-1.2-0.8-1.8-1.3s-1.2-1.1-2-1.8c-0.7-0.7-1.3-2.1-1.6-4.1
		s-0.5-4.3-0.6-6.8s0-5,0.2-7.5s0.5-4.6,0.8-6.4c0.1-0.6,0.8-1,1.9-1c1.1,0,2.3,0.1,3.6,0.4s2.4,0.8,3.4,1.4s1.4,1.1,1.3,1.7
		c-0.1,0.8-0.3,1.8-0.6,3.1c-0.2,1.3-0.5,2.6-0.6,4.1c-0.2,1.5-0.3,3-0.4,4.5c-0.1,1.5-0.1,2.8,0,4s0.3,2.2,0.6,2.9s0.8,1.1,1.5,1.1
		c0.6,0,1.2-0.6,1.8-1.7c0.6-1.1,1.1-2.5,1.6-4.2s0.9-3.6,1.2-5.7c0.3-2.1,0.5-4.2,0.7-6.3c0-0.4,0.1-0.7,0.2-1
		c0-0.6,0.1-1.2,0.2-1.8C62.3,26,62.4,25.5,62.5,25z"/>
	<path class="st0" d="M92.6,53.7c-0.5-0.2-0.9-0.6-1.4-1.4s-1-1.5-1.5-2.3s-1-1.6-1.5-2.3s-0.9-1.2-1.4-1.4l3.4-7.7l1.1-2.2
		c0,1.6,0.1,3.2,0.2,4.8s0.2,3.1,0.3,4.5c0.1,1.4,0.2,2.7,0.3,3.8c0.1,1.1,0.2,2.1,0.3,2.8c0,0.3,0,0.5,0.1,0.7
		c0,0.5,0.1,0.8,0.2,0.9c0.1,0.3,0,0.5-0.5,0.5c-0.5,0.1-1.1,0.1-1.8,0c-0.8-0.1-1.6-0.2-2.5-0.3c-0.9-0.2-1.8-0.3-2.5-0.5
		c-0.8-0.2-1.5-0.4-2-0.6c-0.5-0.2-0.8-0.4-0.8-0.5s0-1.1,0.1-3s0.1-4.3,0.2-7.2s0.1-6.2,0.1-9.8s-0.1-7.2-0.4-10.8
		c-0.1-0.3,0.1-0.5,0.6-0.6s1.1-0.2,1.9-0.2s1.6,0.1,2.4,0.2c0.9,0.1,1.7,0.3,2.4,0.5c0.7,0.2,1.3,0.4,1.7,0.7
		c0.4,0.2,0.5,0.5,0.3,0.8c-0.1,0.6-0.2,1.4-0.3,2.3c-0.1,1-0.2,2-0.2,3.2s-0.1,2.5,0,3.8c0,1.4,0.1,2.8,0.1,4.2L98,23.2
		c0.1-0.4,0.4-0.7,1.1-0.7c0.6-0.1,1.3-0.1,2.1,0c0.6,0,1.2,0.1,1.9,0.3c0.7,0.2,1.4,0.4,2,0.7c0.6,0.3,1.1,0.6,1.5,0.8
		c0.4,0.3,0.6,0.6,0.7,0.8l-0.1,12.7c1-1.7,1.9-3.4,2.8-5.1c0.9-1.7,1.8-3.2,2.5-4.6s1.4-2.5,1.9-3.5s0.8-1.5,1-1.8
		c0-0.4,0.4-0.7,1-0.7c0.6-0.1,1.3-0.1,2.2,0.1c0.8,0.1,1.7,0.4,2.7,0.7c1,0.3,1.9,0.7,2.7,1.2c0.8,0.4,1.4,0.9,1.9,1.3
		c0.5,0.5,0.7,0.9,0.6,1.3c-0.2,0.8-0.4,1.8-0.7,3.1c-0.3,1.3-0.6,2.7-0.8,4.2c-0.3,1.5-0.5,3.1-0.7,4.7c-0.2,1.6-0.3,3-0.3,4.3
		s0.1,2.3,0.4,3.1s0.8,1.2,1.5,1.2c0.6,0,1.2-0.4,1.9-1s1.4-1.4,2-2.4s1.3-2.2,2-3.4c0.7-1.3,1.3-2.5,1.8-3.8
		c0.6-1.3,1.1-2.5,1.5-3.7s0.8-2.3,1-3.2c0.3-1,0.7-1.6,1.4-2s1.3-0.5,2-0.5s1.2,0.4,1.7,0.9c0.4,0.5,0.6,1.2,0.4,2.1
		c-0.7,2.9-1.6,5.9-2.7,8.8c-1.1,2.9-2.2,5.5-3.5,7.8s-2.7,4.1-4.2,5.5s-3.1,2-4.7,1.9c-1.1-0.1-2.2-0.4-3.3-0.8
		c-1.1-0.5-2.1-1-3-1.6s-1.7-1.2-2.3-1.7c-0.6-0.6-1-1-1.2-1.3c-0.3-0.7-0.5-1.7-0.7-2.9s-0.4-2.5-0.5-4s-0.2-3.1-0.3-4.8
		c-0.1-1.7-0.1-3.4-0.1-5.1c-0.7,1.8-1.3,3.8-2,5.8c-0.6,2.1-1.2,4.1-1.7,6s-0.9,3.6-1.2,5.1c-0.3,1.5-0.4,2.6-0.3,3.2
		c0.1,0.2-0.1,0.4-0.6,0.5s-1.1,0.1-1.8,0.1c-0.7,0-1.6-0.1-2.5-0.2c-0.9-0.1-1.8-0.3-2.6-0.4c-0.8-0.2-1.5-0.3-2-0.5
		c-0.6-0.2-0.9-0.4-0.9-0.6l0.4-21.5c-1,1.9-2,4-3,6c-0.9,2.1-1.7,4.1-2.4,6.2c-0.7,2-1.2,4-1.6,5.8c-0.4,1.9-0.5,3.5-0.3,5
		c0,0.4,0,0.6,0.1,0.7C92.4,53.2,92.5,53.5,92.6,53.7z"/>
	<path class="st0" d="M145.2,53.7c-0.5-0.2-0.9-0.6-1.4-1.4s-1-1.5-1.5-2.3s-1-1.6-1.5-2.3s-0.9-1.2-1.4-1.4l3.4-7.7l1.1-2.2
		c0,1.6,0.1,3.2,0.2,4.8c0.1,1.6,0.2,3.1,0.3,4.5s0.2,2.7,0.3,3.8s0.2,2.1,0.3,2.8c0,0.3,0,0.5,0.1,0.7c0,0.5,0.1,0.8,0.2,0.9
		c0.1,0.3,0,0.5-0.5,0.5c-0.5,0.1-1.1,0.1-1.8,0c-0.8-0.1-1.6-0.2-2.5-0.3c-0.9-0.2-1.8-0.3-2.5-0.5c-0.8-0.2-1.5-0.4-2-0.6
		c-0.5-0.2-0.8-0.4-0.8-0.5s0-1.1,0.1-3s0.1-4.3,0.2-7.2c0.1-2.9,0.1-6.2,0.1-9.8s-0.1-7.2-0.4-10.8c-0.1-0.3,0.1-0.5,0.6-0.6
		s1.1-0.2,1.9-0.2s1.6,0.1,2.4,0.2c0.9,0.1,1.7,0.3,2.4,0.5s1.3,0.4,1.7,0.7c0.4,0.2,0.5,0.5,0.3,0.8c-0.1,0.6-0.2,1.4-0.3,2.3
		c-0.1,1-0.2,2-0.2,3.2s-0.1,2.5,0,3.8c0,1.4,0.1,2.8,0.1,4.2l6.7-13.3c0.1-0.4,0.4-0.7,1.1-0.7c0.6-0.1,1.3-0.1,2.1,0
		c0.6,0,1.2,0.1,1.9,0.3c0.7,0.2,1.4,0.4,2,0.7c0.6,0.3,1.1,0.6,1.5,0.8c0.4,0.3,0.6,0.6,0.7,0.8L160,37.9c1-1.7,1.9-3.4,2.8-5.1
		c0.9-1.7,1.8-3.2,2.5-4.6s1.4-2.5,1.9-3.5s0.8-1.5,1-1.8c0-0.4,0.4-0.7,1-0.7c0.6-0.1,1.3-0.1,2.2,0.1c0.8,0.1,1.7,0.4,2.7,0.7
		c1,0.3,1.9,0.7,2.7,1.2c0.8,0.4,1.4,0.9,1.9,1.3c0.5,0.5,0.7,0.9,0.6,1.3c-0.2,0.8-0.4,1.8-0.7,3.1c-0.3,1.3-0.6,2.7-0.8,4.2
		c-0.3,1.5-0.5,3.1-0.7,4.7c-0.2,1.6-0.3,3-0.3,4.3s0.1,2.3,0.4,3.1c0.3,0.8,0.8,1.2,1.5,1.2c0.6,0,1.2-0.4,1.9-1s1.4-1.4,2-2.4
		s1.3-2.2,2-3.4c0.7-1.3,1.3-2.5,1.8-3.8c0.6-1.3,1.1-2.5,1.5-3.7s0.8-2.3,1-3.2c0.3-1,0.7-1.6,1.4-2s1.3-0.5,2-0.5s1.2,0.4,1.7,0.9
		c0.4,0.5,0.6,1.2,0.4,2.1c-0.7,2.9-1.6,5.9-2.7,8.8c-1.1,2.9-2.2,5.5-3.5,7.8s-2.7,4.1-4.2,5.5s-3.1,2-4.7,1.9
		c-1.1-0.1-2.2-0.4-3.3-0.8c-1.1-0.5-2.1-1-3-1.6s-1.7-1.2-2.3-1.7c-0.6-0.6-1-1-1.2-1.3c-0.3-0.7-0.5-1.7-0.7-2.9s-0.4-2.5-0.5-4
		s-0.2-3.1-0.3-4.8s-0.1-3.4-0.1-5.1c-0.7,1.8-1.3,3.8-2,5.8c-0.6,2.1-1.2,4.1-1.7,6s-0.9,3.6-1.2,5.1s-0.4,2.6-0.3,3.2
		c0.1,0.2-0.1,0.4-0.6,0.5s-1.1,0.1-1.8,0.1s-1.6-0.1-2.5-0.2c-0.9-0.1-1.8-0.3-2.6-0.4c-0.8-0.2-1.5-0.3-2-0.5
		c-0.6-0.2-0.9-0.4-0.9-0.6l0.4-21.5c-1,1.9-2,4-3,6c-0.9,2.1-1.7,4.1-2.4,6.2c-0.7,2-1.2,4-1.6,5.8c-0.4,1.9-0.5,3.5-0.3,5
		c0,0.4,0,0.6,0.1,0.7C145.1,53.2,145.1,53.5,145.2,53.7z"/>
	<path class="st0" d="M188.6,25c0.1-0.6,0.8-1,1.9-1c1.1,0,2.3,0.1,3.6,0.4s2.4,0.8,3.4,1.4s1.4,1.1,1.3,1.7
		c-0.2,0.8-0.4,1.8-0.6,3.1c-0.2,1.3-0.4,2.6-0.6,4.1c-0.2,1.5-0.3,3-0.4,4.5c-0.1,1.5-0.1,2.8,0,4s0.3,2.2,0.6,2.9s0.8,1.1,1.5,1.1
		c0.6,0,1.2-0.6,1.8-1.7c0.6-1.1,1.1-2.5,1.6-4.2s0.9-3.6,1.2-5.7c0.3-2.1,0.5-4.2,0.7-6.3c0-0.1,0-0.2,0-0.3c0-0.1,0-0.2,0-0.3
		c0.1-1.9,0.4-3.6,0.9-5c0.1-0.4,0.5-0.7,1.1-0.8c0.6-0.2,1.3-0.2,2.1-0.1s1.6,0.2,2.5,0.4c0.9,0.2,1.6,0.5,2.3,0.8s1.3,0.7,1.7,1.1
		s0.6,0.8,0.5,1.2c-0.4,1.5-0.7,3.1-0.9,5s-0.4,3.8-0.4,5.8c-0.1,2-0.1,4-0.1,6s0.1,3.9,0.1,5.6c2.9-2.4,5.3-5.3,7.3-8.6
		c2-3.3,3.4-6.8,4.2-10.5c0.3-1,0.7-1.6,1.4-2s1.4-0.5,2.1-0.4c0.7,0.1,1.3,0.4,1.8,1c0.5,0.5,0.7,1.2,0.6,2
		c-0.5,2.9-1.2,5.6-2.4,8.1c-1.1,2.6-2.5,4.9-4,7.1s-3.3,4.2-5.2,6s-3.8,3.4-5.8,4.8c-0.2,2.7-0.8,5.1-1.8,7.3
		c-1,2.1-2.2,3.9-3.6,5.4c-1.4,1.5-3,2.6-4.7,3.4s-3.4,1.1-5.1,1.1c-2.3-0.1-4.1-0.8-5.5-2c-1.4-1.3-2.1-2.8-2.3-4.6
		c-0.2-2.1,0.2-3.9,1.1-5.2s2-2.5,3.5-3.4c1.4-0.9,3-1.7,4.8-2.3s3.4-1.3,5-1.9c0.1-1.9,0-4-0.2-6.2c-0.9,2-1.9,3.6-3.1,4.8
		c-1.2,1.2-2.5,1.7-3.9,1.6c-1.1-0.1-2-0.2-2.8-0.4s-1.4-0.5-2-0.8s-1.2-0.8-1.8-1.3s-1.2-1.1-2-1.8c-0.7-0.7-1.3-2.1-1.6-4.1
		s-0.5-4.3-0.6-6.8s0-5,0.2-7.5C188,28.8,188.3,26.7,188.6,25z M198.2,65c0,0.3,0.1,0.5,0.4,0.8c0.3,0.2,0.7,0.3,1.3,0.2
		c0.5-0.1,1.2-0.5,1.9-1.1s1.4-1.7,2.1-3.1c-0.7,0.3-1.3,0.6-2,1c-0.7,0.3-1.3,0.6-1.8,0.9s-1,0.6-1.3,0.8S198.2,64.9,198.2,65z"/>
</g>
<g>
	<path class="st1" d="M277.6,7.1c0.8,2.6,1.7,5.6,2.8,8.9c1,3.4,2,6.9,3.1,10.5c1,3.6,2,7.1,3,10.6s1.8,6.6,2.5,9.3
		c0.7,2.8,1.2,5,1.6,6.8c0.4,1.7,0.5,2.7,0.3,2.8c0,0.2-0.2,0.4-0.8,0.5c-0.6,0.2-1.3,0.3-2.2,0.4c-0.9,0.1-1.8,0.2-2.9,0.3
		c-1,0.1-2,0.1-2.8,0c-0.9,0-1.6-0.1-2.1-0.3c-0.6-0.2-0.8-0.4-0.7-0.7c0,0,0-0.4-0.1-1s-0.2-1.5-0.4-2.5s-0.5-2.3-0.7-3.7
		c-0.3-1.4-0.6-3-1-4.7c-0.8,0.1-1.9,0.3-3.3,0.4c-1.4,0.2-2.9,0.3-4.4,0.4c-1.5,0.1-3,0.2-4.4,0.3s-2.6,0.1-3.4,0.1
		c-0.5,1.5-1,2.9-1.5,4.2s-0.8,2.4-1.2,3.3c-0.3,1-0.6,1.7-0.7,2.3c-0.2,0.6-0.3,0.9-0.2,0.9c0,0.3-0.3,0.5-0.8,0.5s-1.2-0.1-2-0.2
		c-0.8-0.2-1.7-0.4-2.7-0.7s-1.8-0.7-2.7-1s-1.5-0.7-2-1s-0.7-0.5-0.6-0.7c-0.1-0.1,0.1-1.1,0.7-2.8c0.6-1.7,1.4-4,2.4-6.8
		s2.2-5.9,3.6-9.4c1.4-3.5,2.8-7,4.2-10.6s2.8-7,4.2-10.3c1.4-3.3,2.6-6.3,3.7-8.8c0-0.3,0.4-0.5,1-0.6s1.4,0,2.3,0.1
		s1.9,0.3,2.9,0.5s2,0.5,2.8,0.8s1.5,0.6,2,0.9s0.6,0.6,0.4,0.8C277.5,6.9,277.6,7,277.6,7.1z M271.3,20c-1.2,2.9-2.4,5.9-3.6,9
		s-2.4,6.2-3.6,9.3c1.1,0,2.3-0.1,3.4-0.1c1.2,0,2.3,0,3.3-0.1c1.1,0,2,0,2.9,0c0.8,0,1.5,0,1.9,0c-0.7-3-1.4-6.1-2.1-9.2
		C272.9,25.8,272.1,22.8,271.3,20z"/>
	<path class="st1" d="M326.3,21.9c0-0.2,0.1-0.4,0.5-0.5s0.9-0.1,1.5-0.1s1.3,0.1,2,0.2s1.4,0.2,1.9,0.4c0.6,0.2,1,0.3,1.4,0.5
		c0.3,0.2,0.4,0.4,0.3,0.6l-0.9,4.3c-0.2,1.6,0,3.1,0.5,4.5c0.6,1.3,1.4,2.2,2.3,2.7c1,0.5,2,0.4,3.2-0.3c1.1-0.7,2.1-2.2,2.9-4.5
		c0.4-1.1,1-1.9,1.7-2.4s1.4-0.6,2.2-0.5c0.7,0.1,1.3,0.4,1.8,0.9s0.7,1.2,0.5,1.9c-0.4,2.6-1.3,4.8-2.6,6.5
		c-1.3,1.7-2.8,2.9-4.5,3.6c-1.7,0.7-3.5,1-5.3,0.8s-3.4-0.8-4.8-1.9c-0.6,2.1-1.3,4.2-2.1,6.1c-0.8,1.9-1.7,3.6-2.7,5
		s-2,2.5-3.1,3.3s-2.2,1.1-3.5,1c-1.1-0.1-2-0.2-2.8-0.4c-0.7-0.2-1.4-0.5-2-0.8s-1.2-0.8-1.8-1.3c-0.6-0.5-1.2-1.1-1.9-1.8
		c-0.4-0.4-0.7-0.9-0.9-1.4c-0.9,1.9-1.9,3.4-3.1,4.4c-1.1,1-2.4,1.5-3.7,1.4c-1.1-0.1-2-0.2-2.8-0.4s-1.4-0.5-2-0.8
		s-1.2-0.8-1.8-1.3c-0.6-0.5-1.2-1.1-2-1.8c-0.7-0.7-1.3-2.1-1.6-4.1c-0.3-2-0.5-4.3-0.6-6.8s0-5,0.2-7.5s0.5-4.6,0.8-6.4
		c0.1-0.6,0.8-1,1.9-1s2.3,0.1,3.6,0.4c1.3,0.3,2.4,0.8,3.4,1.4s1.4,1.1,1.3,1.7c-0.1,0.8-0.3,1.8-0.6,3.1c-0.3,1.3-0.5,2.6-0.6,4.1
		c-0.2,1.5-0.3,3-0.4,4.5s-0.1,2.8,0,4s0.3,2.2,0.6,2.9c0.3,0.7,0.8,1.1,1.5,1.1c0.5,0,1-0.4,1.4-1.1c0.5-0.7,0.9-1.6,1.3-2.7
		c0.4-1.1,0.7-2.4,1.1-3.9c0.3-1.5,0.6-3,0.8-4.7c0.1-1.9,0.2-3.7,0.4-5.4c0.2-1.7,0.4-3.2,0.7-4.5c0.1-0.6,0.8-1,1.9-1
		s2.3,0.1,3.6,0.4c1.3,0.3,2.4,0.8,3.4,1.4s1.4,1.1,1.3,1.7c-0.2,0.8-0.4,1.8-0.6,3.1c-0.2,1.3-0.4,2.6-0.6,4.1s-0.4,3-0.4,4.5
		c-0.1,1.5-0.1,2.8,0,4s0.3,2.2,0.6,2.9c0.3,0.7,0.8,1.1,1.5,1.1c0.6,0,1.2-0.6,1.8-1.7c0.6-1.1,1.1-2.5,1.6-4.2s0.9-3.6,1.2-5.7
		c0.3-2.1,0.5-4.2,0.7-6.3c0-0.3,0-0.6,0.1-0.8L326.3,21.9z"/>
	<path class="st1" d="M358,23.7c0.1-0.4,0.4-0.7,1-0.8c0.6-0.2,1.2-0.2,2-0.1s1.6,0.2,2.5,0.4c0.9,0.2,1.7,0.5,2.4,0.8
		c0.7,0.3,1.3,0.7,1.7,1.1c0.4,0.4,0.6,0.8,0.5,1.2c-0.4,1.2-0.6,2.2-0.8,3c-0.2,0.8-0.4,1.6-0.5,2.2c-0.2,0.7-0.3,1.4-0.4,2.1
		s-0.2,1.6-0.3,2.5c-0.2,1.7-0.3,3.3-0.3,4.8s0.1,2.7,0.3,3.8s0.5,1.9,0.9,2.5s0.9,0.9,1.5,0.9c1.2,0,2.3-0.7,3.3-2.2
		c1-1.4,2-3.2,2.8-5.2s1.6-4,2.2-6s1.1-3.7,1.4-4.9c0.3-1,0.7-1.6,1.4-2c0.6-0.4,1.3-0.6,1.9-0.5c0.7,0.1,1.2,0.4,1.7,0.9
		s0.7,1.2,0.6,2c-0.4,2.9-1.1,5.9-2.1,8.8c-1.1,2.9-2.3,5.5-3.8,7.9c-1.5,2.3-3.1,4.2-4.8,5.6c-1.7,1.4-3.4,2-5,1.9
		c-2.1-0.2-3.9-0.6-5.3-1.4c-1.4-0.7-2.8-1.8-4.3-3.3c-0.4-0.4-0.7-1-1-1.9c-1.1,1.8-2.2,3.3-3.2,4.3s-2.2,1.6-3.3,1.5
		c-1.7-0.1-3.2-0.4-4.5-1.1c-1.3-0.6-2.5-1.3-3.4-2.1c-1-0.8-1.7-1.6-2.2-2.3c-0.5-0.8-0.9-1.4-1-1.9c-0.4-1.3-0.6-2.8-0.6-4.5
		s0.2-3.5,0.5-5.3s0.8-3.6,1.4-5.4c0.6-1.8,1.3-3.4,2.1-4.9c0.8-1.4,1.7-2.6,2.7-3.6c1-0.9,2-1.5,3.1-1.6c1,0.1,2.4,0.5,4.1,1.1
		c1.7,0.7,3.4,1.6,4.9,2.7L358,23.7z M350.1,47.1c0.4,0,0.9-0.3,1.5-0.9c0.6-0.6,1.2-1.4,1.9-2.5c0.7-1.1,1.3-2.5,1.8-4
		c0.6-1.6,1-3.4,1.3-5.4c0-0.5,0.1-1,0.1-1.4c0-0.5,0.1-0.9,0.2-1.4c0-0.8-0.1-1.6-0.4-2.5c-0.3-0.8-0.7-1.3-1.2-1.3
		c-0.6,0-1.3,0.4-2.1,1.4c-0.7,1-1.5,2.2-2.2,3.6c-0.7,1.5-1.3,3-1.8,4.7s-0.9,3.3-1.1,4.8s-0.1,2.7,0.1,3.7
		C348.5,46.7,349.1,47.1,350.1,47.1z"/>
	<path class="st1" d="M378.2,18.3c-0.1-0.6,0.1-1.1,0.4-1.5s0.9-0.6,1.5-0.7s1.3-0.1,2,0s1.3,0.3,1.9,0.5s1,0.6,1.4,1
		c0.3,0.4,0.4,0.8,0.2,1.3c0,0.6-0.1,1.2-0.2,1.8c-0.1,0.5-0.2,1-0.2,1.6s-0.1,1.1-0.2,1.5c0,0.1,0,0.2-0.1,0.4c0,0.2,0,0.2,0.3,0.2
		c0.5,0,1.1-0.1,2.1-0.3c0.9-0.2,1.9-0.3,3.1-0.4c1.1-0.1,2.2-0.1,3.4-0.1c1.2,0,2.2,0.1,3.1,0.4c0.9,0.2,1.6,0.6,2.1,1.1
		s0.7,1.2,0.5,2.1c-0.2,0.8-0.4,1.8-0.6,3s-0.4,2.6-0.6,4c-0.2,1.4-0.4,2.9-0.5,4.3c-0.1,1.5-0.1,2.8,0,3.9c0.1,1.2,0.3,2.1,0.6,2.9
		c0.3,0.7,0.8,1.1,1.5,1.1c1.1,0,2.2-0.6,3.3-1.9c1-1.3,2-2.8,2.8-4.6s1.5-3.6,2.1-5.5s1.1-3.4,1.4-4.7c0.3-1,0.7-1.6,1.4-2
		c0.6-0.4,1.3-0.6,1.9-0.5c0.7,0.1,1.2,0.4,1.7,0.9s0.7,1.2,0.6,2c-0.2,1.9-0.6,3.9-1.2,5.9s-1.3,3.9-2.1,5.7
		c-0.8,1.8-1.7,3.5-2.8,5.1c-1,1.6-2.1,2.9-3.2,4.1c-1.1,1.1-2.2,2-3.3,2.6c-1.1,0.6-2.2,0.8-3.3,0.7c-2.6-0.4-4.7-0.9-6.3-1.7
		c-1.6-0.8-2.8-1.9-3.7-3.3c-0.9-1.4-1.4-3.2-1.6-5.4s-0.2-4.7-0.1-7.8v-0.2c0,0,0-0.3,0.1-0.9c0.1-0.5,0.1-1.1,0.1-1.7
		c0-0.6-0.1-1.2-0.2-1.7s-0.4-0.9-0.8-1s-0.8-0.1-1.5,0.1c-0.6,0.1-1.2,0.3-1.9,0.5c-0.7,0.2-1.3,0.4-1.9,0.6s-1.2,0.3-1.6,0.3
		c-0.9,0-1.5-0.3-1.8-0.8s-0.4-0.8-0.3-1c0.5-1.9,0.7-3.9,0.7-5.9C378.6,22.5,378.5,20.4,378.2,18.3z"/>
	<path class="st1" d="M425.7,6c0.1-0.4,0.4-0.7,1.1-0.9c0.6-0.2,1.3-0.3,2.2-0.3c0.9,0,1.8,0,2.8,0.1s1.8,0.3,2.6,0.5
		c0.8,0.2,1.4,0.5,1.9,0.9c0.5,0.3,0.7,0.7,0.6,1.1c-0.3,1-0.6,2.6-0.9,5s-0.6,5.1-0.9,8.1c-0.2,3-0.4,6.1-0.6,9.4
		c-0.1,3.3-0.1,6.2,0,8.9s0.4,4.9,0.8,6.7c0.4,1.7,1,2.6,1.9,2.6c1.2,0,2.3-0.7,3.3-2.2c1-1.4,2-3.2,2.8-5.2s1.6-4,2.2-6
		s1.1-3.7,1.4-4.9c0.3-1,0.7-1.6,1.4-2c0.7-0.4,1.3-0.5,2-0.4s1.3,0.4,1.7,0.9c0.5,0.5,0.6,1.2,0.4,2c-0.7,3.7-1.7,7-2.8,10.1
		c-1.1,3-2.4,5.6-3.8,7.8s-2.9,3.8-4.5,4.9c-1.6,1.1-3.1,1.6-4.7,1.5c-2.1-0.2-3.9-0.6-5.3-1.4c-1.4-0.7-2.8-1.8-4.3-3.3
		c-0.6-0.5-1.1-1.6-1.4-3.1c-1.2,2.2-2.4,3.9-3.5,5.2s-2.4,1.9-3.7,1.8c-1.7-0.1-3.2-0.4-4.5-1.1s-2.5-1.3-3.4-2.1
		c-1-0.8-1.7-1.6-2.2-2.3c-0.5-0.8-0.9-1.4-1-1.9c-0.4-1.3-0.6-2.8-0.6-4.5s0.2-3.5,0.5-5.3s0.8-3.6,1.4-5.4
		c0.6-1.8,1.3-3.4,2.1-4.9c0.8-1.4,1.7-2.6,2.7-3.6c1-0.9,2-1.5,3.1-1.6c0.9,0.1,2.1,0.4,3.7,1c1.5,0.6,3.1,1.3,4.6,2.3
		c0.1-2.7,0.2-5.6,0.4-8.7C425.2,12.7,425.4,9.4,425.7,6z M417.7,47.1c0.4,0,0.9-0.3,1.6-0.9c0.6-0.6,1.3-1.4,2-2.5s1.3-2.5,1.9-4
		c0.6-1.6,1-3.4,1.3-5.4v-3.9c-0.1-0.7-0.3-1.3-0.6-1.9c-0.3-0.6-0.6-0.9-1-0.9c-0.6,0-1.3,0.4-2.1,1.4c-0.7,1-1.5,2.2-2.2,3.6
		c-0.7,1.5-1.3,3-1.8,4.7s-0.9,3.3-1.1,4.8s-0.1,2.7,0.1,3.7C416.1,46.7,416.8,47.1,417.7,47.1z"/>
	<path class="st1" d="M478.9,30.3c-0.6,2.3-1.3,4.3-2.1,6s-1.7,3.2-2.7,4.5s-2,2.4-3,3.2c-1.1,0.8-2.1,1.5-3.2,2.1
		c-0.4,1.3-1.1,2.5-2.1,3.7c-1,1.1-2.2,2.1-3.5,2.9c-1.3,0.8-2.7,1.5-4.2,1.9c-1.5,0.5-2.8,0.7-4,0.6c-1.2,0-2.2-0.3-3.1-0.9
		c-0.8-0.6-1.2-1.4-1.3-2.6c0-1,0.1-1.8,0.4-2.5s0.8-1.4,1.4-1.9c0.6-0.6,1.3-1.1,2.2-1.5c0.8-0.5,1.8-0.9,2.8-1.4
		c-0.5-0.7-1.2-1.4-2-2.3c-0.9-0.8-1.8-1.8-2.7-2.9c-0.9-1.1-1.8-2.3-2.7-3.6c-0.9-1.3-1.5-2.8-2-4.6c-0.4-1.4-0.4-3.3-0.2-5.4
		c0.2-2.2,0.6-4.4,1.2-6.6c0.1-0.6,0.7-1,1.6-1.3c1-0.2,1.9-0.4,2.9-0.3c1,0,1.9,0.2,2.6,0.5s1,0.7,0.7,1.2
		c-0.9,1.7-1.4,3.2-1.4,4.5s0.2,2.6,0.8,3.7c0.5,1.1,1.3,2.1,2.3,3.1s2,1.9,3.1,2.8c1.1,0.9,2.1,1.9,3.2,2.9s2,2,2.7,3.2
		c1.5-1,2.8-2.3,4-3.8s2.1-3.4,2.7-5.6c0.3-1,0.7-1.7,1.4-2.1c0.7-0.4,1.4-0.5,2-0.4c0.7,0.1,1.3,0.4,1.7,0.9
		C479,28.8,479.1,29.5,478.9,30.3z"/>
</g>
</svg>
