<?xml version="1.0" encoding="utf-8"?>
<!-- Generator: Adobe Illustrator 24.0.1, SVG Export Plug-In . SVG Version: 6.00 Build 0)  -->
<svg version="1.1" id="Layer_1" xmlns="http://www.w3.org/2000/svg" xmlns:xlink="http://www.w3.org/1999/xlink" x="0px" y="0px"
	 viewBox="0 0 64 64" style="enable-background:new 0 0 64 64;" xml:space="preserve">
<style type="text/css">
	.st0{fill:#FFFFFF;}
</style>
<path class="st0" d="M21.3,32c0-5.9,4.8-10.7,10.7-10.7S42.7,26.1,42.7,32S37.9,42.7,32,42.7S21.3,37.9,21.3,32 M15.6,32
	c0,9.1,7.4,16.4,16.4,16.4S48.4,41.1,48.4,32S41.1,15.6,32,15.6S15.6,22.9,15.6,32 M45.2,14.9c0,2.1,1.7,3.8,3.8,3.8
	s3.8-1.7,3.8-3.8s-1.7-3.8-3.8-3.8l0,0C47,11.1,45.2,12.8,45.2,14.9 M19.1,58c-3.1-0.1-4.8-0.7-5.9-1.1c-1.5-0.6-2.6-1.3-3.7-2.4
	c-1.1-1.1-1.8-2.2-2.4-3.7c-0.4-1.1-1-2.8-1.1-5.9C5.8,41.6,5.8,40.5,5.8,32s0-9.6,0.2-12.9c0.1-3.1,0.7-4.8,1.1-5.9
	c0.6-1.5,1.3-2.6,2.4-3.7s2.2-1.8,3.7-2.4c1.1-0.4,2.8-1,5.9-1.1c3.4-0.2,4.4-0.2,12.9-0.2s9.6,0,12.9,0.2c3.1,0.1,4.8,0.7,5.9,1.1
	c1.5,0.6,2.6,1.3,3.7,2.4s1.8,2.2,2.4,3.7c0.4,1.1,1,2.8,1.1,5.9c0.2,3.4,0.2,4.4,0.2,12.9s0,9.6-0.2,12.9c-0.1,3.1-0.7,4.8-1.1,5.9
	c-0.6,1.5-1.3,2.6-2.4,3.7s-2.2,1.8-3.7,2.4c-1.1,0.4-2.8,1-5.9,1.1c-3.4,0.2-4.4,0.2-12.9,0.2S22.4,58.2,19.1,58 M18.8,0.2
	c-3.4,0.2-5.7,0.7-7.8,1.5S7.2,3.6,5.4,5.4S2.5,8.9,1.7,11c-0.8,2-1.3,4.4-1.5,7.8S0,23.3,0,32s0,9.8,0.2,13.2s0.7,5.7,1.5,7.8
	s1.9,3.9,3.7,5.7s3.6,2.9,5.7,3.7c2,0.8,4.4,1.3,7.8,1.5C22.2,64,23.3,64,32,64s9.8,0,13.2-0.2s5.7-0.7,7.8-1.5s3.9-1.9,5.7-3.7
	s2.9-3.6,3.7-5.7c0.8-2,1.3-4.4,1.5-7.8C64,41.8,64,40.7,64,32s0-9.8-0.2-13.2s-0.7-5.7-1.5-7.8s-1.9-3.9-3.7-5.7S55,2.4,52.9,1.6
	c-2-0.8-4.4-1.3-7.8-1.5C41.8,0,40.7,0,32,0S22.2,0,18.8,0.2"/>
</svg>
