<?xml version="1.0" encoding="utf-8"?>
<!-- Generator: Adobe Illustrator 24.0.1, SVG Export Plug-In . SVG Version: 6.00 Build 0)  -->
<svg version="1.1" id="Layer_1" xmlns="http://www.w3.org/2000/svg" xmlns:xlink="http://www.w3.org/1999/xlink" x="0px" y="0px"
	 viewBox="0 0 64 64" style="enable-background:new 0 0 64 64;" xml:space="preserve">
<style type="text/css">
	.st0{fill:#FFFFFF;}
</style>
<g>
	<g>
		<path class="st0" d="M63,11.6c-1.4,0.6-2.9,1.1-4.4,1.5c1.7-1.6,2.9-3.6,3.6-5.8c0.2-0.6-0.5-1.2-1.1-0.8
			c-2.1,1.3-4.4,2.2-6.7,2.8c-0.1,0-0.3,0.1-0.4,0.1c-0.4,0-0.9-0.2-1.2-0.5c-2.5-2.2-5.8-3.4-9.1-3.4c-1.5,0-2.9,0.2-4.4,0.7
			c-4.5,1.4-7.9,5.1-9,9.6c-0.4,1.7-0.5,3.4-0.3,5.1c0,0.2-0.1,0.3-0.1,0.4c-0.1,0.1-0.2,0.2-0.4,0.2l0,0c-9.9-1.1-18.7-5.8-25-13.5
			C4.2,7.7,3.6,7.7,3.4,8.1c-1.2,2.1-1.9,4.5-1.9,6.9c0,3.7,1.5,7.3,4.1,9.8c-1.1-0.3-2.2-0.7-3.1-1.2c-0.5-0.3-1.1,0.1-1.1,0.6
			c-0.1,5.7,3.2,10.6,8,12.8c-0.1,0-0.2,0-0.3,0c-0.8,0-1.6-0.1-2.3-0.2c-0.5-0.1-1,0.4-0.8,0.9c1.6,4.9,5.8,8.6,10.9,9.4
			c-4.2,2.8-9.1,4.3-14.3,4.3H1c-0.5,0-0.9,0.3-1,0.8s0.1,1,0.5,1.2c5.8,3.4,12.3,5.1,19,5.1c5.8,0,11.3-1.2,16.3-3.4
			c4.5-2.1,8.5-5.1,11.9-8.9c3.1-3.6,5.6-7.7,7.3-12.2c1.6-4.3,2.5-8.9,2.5-13.4v-0.2c0-0.7,0.3-1.4,0.9-1.8c2.1-1.7,4-3.7,5.5-6
			C64.3,12,63.6,11.3,63,11.6L63,11.6z"/>
	</g>
</g>
</svg>
