<?xml version="1.0" encoding="utf-8"?>
<!-- Generator: Adobe Illustrator 24.0.1, SVG Export Plug-In . SVG Version: 6.00 Build 0)  -->
<svg version="1.1" id="Layer_1" xmlns="http://www.w3.org/2000/svg" xmlns:xlink="http://www.w3.org/1999/xlink" x="0px" y="0px"
	 viewBox="0 0 32 32" style="enable-background:new 0 0 32 32;" xml:space="preserve">
<style type="text/css">
	.st0{fill:#F1592C;}
</style>
<title>logo</title>
<path class="st0" d="M26.9,16.3c-1.2-0.7-2.5-1.2-3.9-1.6c-1.5-0.5-3.1-1-4.8-1.4l-4.7-1.1c-1.4-0.3-2.6-0.7-3.6-0.9
	s-1.4-0.5-1.4-0.7s0.2-0.5,0.7-0.8c0.6-0.4,1.1-0.7,1.7-0.9c0.7-0.3,1.5-0.6,2.3-0.9s1.7-0.6,2.5-0.9s1.6-0.5,2.3-0.6
	C18.7,6.1,19.1,6,19.4,6c0.5,0,0.8,0,0.9,0.2s0.2,0.5,0.2,0.8c0,0.4,0,0.8-0.1,1.1s-0.1,0.7,0,1c0,0.1,0.2,0.2,0.6,0.1
	c0.5-0.1,1-0.3,1.5-0.4c0.7-0.2,1.4-0.5,2.1-0.8c0.7-0.3,1.4-0.6,2.1-1c0.6-0.3,1.1-0.7,1.6-1.1C28.7,5.6,29,5.2,29,4.8
	c0-0.7-0.1-1.3-0.4-2c-0.3-0.6-0.7-1.1-1.1-1.5c-0.5-0.4-1.1-0.8-1.7-1C25,0.1,24.3,0,23.6,0c-1.1,0-2.2,0.1-3.3,0.3
	c-1.4,0.2-2.9,0.5-4.3,0.8c-1.5,0.4-3,0.8-4.5,1.3c-1.4,0.5-2.8,1-4.1,1.7c-1.1,0.5-2.2,1.2-3.1,2C3.5,6.7,3,7.6,2.8,8.5
	c0,0.5,0,1.1,0.2,1.6c0.1,0.6,0.3,1.2,0.6,1.8s0.6,1.2,0.9,1.8c0.3,0.5,0.7,1,1.1,1.4c0.7,0.6,1.4,1.1,2.3,1.3
	c1.1,0.4,2.3,0.9,3.7,1.3s2.8,0.8,4.2,1.3c1.5,0.4,2.8,0.8,3.9,1.2c1,0.3,1.9,0.7,2.8,1.1c0.7,0.4,1,0.8,0.8,1.2
	C23,23.1,22.6,23.6,22,24c-0.7,0.5-1.5,0.8-2.3,1c-1,0.3-2,0.5-3,0.6s-2.1,0.2-3.1,0.1c-1,0-2-0.2-2.9-0.4c-0.8-0.2-1.6-0.4-2.3-0.8
	C8,24.3,7.6,24,7.3,23.6C7.1,23.3,7,23,6.8,22.7c-0.1-0.2-0.2-0.5-0.3-0.7c-0.2-0.2-0.4-0.4-0.7-0.5c-0.2-0.1-0.5,0.1-0.7,0.4
	c-0.3,0.5-0.5,0.9-0.7,1.5c-0.2,0.5-0.3,1-0.4,1.6c-0.1,0.5-0.1,1-0.2,1.4c0,0.5,0,0.9,0.1,1.4s0.2,0.9,0.4,1.3s0.5,0.8,0.9,1.1
	c0.4,0.4,0.9,0.6,1.5,0.7c1.3,0.3,2.7,0.6,4,0.7C12.4,32,14,32,15.6,32c1.6-0.1,3.2-0.3,4.8-0.6c1.5-0.3,2.9-0.9,4.2-1.7
	c1.2-0.7,2.2-1.7,2.9-2.9c0.6-1,1.1-2.1,1.4-3.3c0.3-1,0.4-2,0.3-3c0-0.7-0.1-1.5-0.3-2.2C28.4,17.4,27.7,16.7,26.9,16.3z"/>
</svg>
