<?xml version="1.0" encoding="utf-8"?>
<svg version="1.1" id="Layer_1" xmlns="http://www.w3.org/2000/svg" xmlns:xlink="http://www.w3.org/1999/xlink" x="0px" y="0px"
	 viewBox="0 0 16 16" style="enable-background:new 0 0 16 16;" xml:space="preserve">
<style type="text/css">
	.st0{fill:#30B44B;}
	.st1{fill:#F9BB18;}
	.st2{fill:#6287C5;}
	.st3{fill:#EF4538;}
</style>
<g>
	<path class="st0" d="M13,14.2c-0.5,0.4-1.1,0.8-1.7,1.1c-0.8,0.4-1.7,0.6-2.6,0.7c0,0-0.1,0-0.1,0c-0.4,0-0.8,0-1.2,0
		c0,0-0.1,0-0.1,0c-1.6-0.1-3-0.7-4.3-1.7c-0.8-0.7-1.5-1.5-2-2.5c0.9-0.7,1.7-1.4,2.6-2.1c0.3,0.6,0.6,1.2,1.1,1.7
		c1.5,1.5,3.8,1.9,5.7,0.8c0,0,0.1,0,0.1-0.1C11.3,12.8,12.1,13.5,13,14.2z"/>
	<path class="st1" d="M3.5,9.7c-0.9,0.7-1.7,1.4-2.6,2.1C0.5,11,0.2,10.1,0.1,9.2c0-0.2,0-0.4-0.1-0.6c0-0.4,0-0.9,0-1.3
		C0.1,7.2,0.1,7,0.1,6.8c0.1-0.9,0.4-1.7,0.8-2.5c0.2,0.2,0.5,0.4,0.7,0.6c0.6,0.5,1.3,1,1.9,1.5C3.4,6.9,3.3,7.4,3.2,7.9
		C3.2,8.5,3.3,9.1,3.5,9.7z"/>
	<path class="st2" d="M13,14.2c-0.9-0.7-1.7-1.4-2.6-2.1c0.6-0.4,1.1-0.8,1.5-1.3c0.2-0.3,0.4-0.6,0.5-1c0.1-0.1,0-0.2-0.1-0.2
		c-1.3,0-2.6,0-3.9,0c-0.2,0-0.2,0-0.2-0.2c0-0.9,0-1.9,0-2.8c0-0.1,0-0.2,0.2-0.2c2.5,0,4.9,0,7.4,0c0.1,0,0.1,0,0.2,0.1
		c0.4,2.4-0.2,4.6-1.8,6.5C13.8,13.5,13.4,13.9,13,14.2z"/>
	<path class="st3" d="M3.5,6.4c-0.6-0.5-1.3-1-1.9-1.5C1.4,4.7,1.1,4.5,0.9,4.3c0.3-0.7,0.7-1.2,1.2-1.8C3.5,1.2,5,0.3,6.9,0.1
		c2.2-0.3,4.3,0.3,6.1,1.7c0.1,0.1,0.1,0.1,0,0.2c-0.8,0.6-1.6,1.3-2.4,1.9c-0.1,0.1-0.1,0.1-0.2,0C7.8,2.4,4.6,3.6,3.5,6.4
		C3.5,6.4,3.5,6.4,3.5,6.4z"/>
</g>
</svg>
