<?xml version="1.0" encoding="utf-8"?>
<!-- Generator: Adobe Illustrator 24.0.1, SVG Export Plug-In . SVG Version: 6.00 Build 0)  -->
<svg version="1.1" id="Layer_1" xmlns="http://www.w3.org/2000/svg" xmlns:xlink="http://www.w3.org/1999/xlink" x="0px" y="0px"
	 viewBox="0 0 674.1 123.6" style="enable-background:new 0 0 674.1 123.6;" xml:space="preserve">
<style type="text/css">
	.st0{fill:#FFFFFF;}
	.st1{fill:#F1592C;}
	.st2{fill:none;stroke:#FFFFFF;}
</style>
<title>hero-logo</title>
<path class="st0" d="M75.9,53.2c-0.7-2-2.6-3.9-5.7-5.6c-3.6-1.9-7.4-3.5-11.3-4.8c-4.4-1.5-9.1-2.8-14.1-4l-13.8-3.3
	c-4.2-1-7.7-1.9-10.4-2.7c-2.8-0.8-4.1-1.5-4.1-2c0-0.7,0.7-1.5,2-2.5c1.6-1.1,3.3-2,5.1-2.8c2.1-0.9,4.4-1.8,6.8-2.8
	c2.5-0.9,4.9-1.8,7.3-2.5s4.6-1.4,6.5-1.9c1.9-0.5,3.3-0.8,4.2-1c1.4-0.2,2.4,0.1,2.8,0.7c0.4,0.7,0.6,1.6,0.6,2.4
	c0,1.1-0.1,2.1-0.4,3.2c-0.2,0.9-0.3,1.9-0.1,2.9c-0.1,0.4,0.5,0.5,1.7,0.3c1.6-0.3,3.1-0.7,4.6-1.2c2.1-0.7,4.1-1.5,6.1-2.3
	c2.1-0.9,4.1-1.9,6.1-3.1c1.7-0.9,3.3-2,4.7-3.2c1.3-1.1,1.9-2.1,1.9-3.1c0-2-0.4-3.9-1.3-5.7c-0.8-1.7-2-3.2-3.4-4.4
	c-1.5-1.2-3.2-2.2-5.1-2.8c-2-0.7-4.1-1-6.2-1c-3.3,0.1-6.5,0.3-9.7,0.8c-4.2,0.6-8.3,1.4-12.4,2.5c-4.4,1.1-8.7,2.4-13.1,3.8
	c-4.1,1.4-8.1,3-12,5c-3.2,1.6-6.2,3.6-9,5.9c-2.4,2.1-3.7,4.2-4,6.6c-0.1,1.6,0.1,3.2,0.5,4.7c0.4,1.8,1,3.6,1.7,5.3
	c0.7,1.8,1.6,3.5,2.6,5.2c0.9,1.5,2,2.9,3.2,4.1c1.9,1.7,4.2,3.1,6.7,3.9c3.2,1.2,6.7,2.5,10.7,3.7s8.1,2.5,12.3,3.7
	c4.2,1.2,8.1,2.4,11.5,3.6c2.8,0.9,5.5,2.1,8.1,3.5c2,1.2,2.8,2.3,2.4,3.5c-0.8,1.8-2.1,3.4-3.8,4.4c-2.1,1.3-4.4,2.3-6.8,3
	c-2.8,0.8-5.7,1.3-8.6,1.6c-3,0.4-6.1,0.5-9.2,0.4c-2.9-0.1-5.7-0.5-8.5-1.1c-2.3-0.5-4.5-1.3-6.5-2.5c-1.1-0.6-2.1-1.5-2.9-2.5
	c-0.5-0.8-0.9-1.6-1.3-2.5c-0.3-0.7-0.6-1.4-1-2.1c-0.4-0.7-1.1-1.2-1.9-1.4c-0.7-0.2-1.4,0.2-2.1,1.3c-0.9,1.3-1.6,2.8-2.1,4.3
	c-0.5,1.5-0.9,3-1.1,4.6c-0.3,1.6-0.5,3-0.5,4.1c-0.1,1.4,0,2.7,0.2,4.1c0.2,1.4,0.6,2.7,1.2,4c0.6,1.3,1.5,2.4,2.6,3.4
	c1.3,1,2.7,1.8,4.3,2.2c3.9,1,7.8,1.6,11.8,2c4.6,0.5,9.2,0.6,13.9,0.4c4.7-0.2,9.3-0.8,13.9-1.9c4.3-0.9,8.4-2.6,12.1-5
	c3.4-2.1,6.3-5,8.5-8.5c1.8-3,3.2-6.2,4.1-9.6c0.8-2.9,1.1-5.9,1-8.9C76.8,57.4,76.5,55.2,75.9,53.2z"/>
<path class="st0" d="M232.9,41.2c-1.3-0.2-2.6,0.1-3.7,0.7c-1.3,0.8-2.2,2.1-2.5,3.5c-1.5,7.2-4.4,14.1-8.5,20.2
	c-3.8,5.5-8.4,10.4-13.6,14.6c0.2-4.8,0.5-9.5,0.8-14.2c0.3-4.7,0.7-9,1-12.9c0.3-3.9,0.7-7.3,1-10.2c0.2-2.1,0.5-4.1,1-6.1
	c0.3-0.5,0.1-0.9-0.7-1.3c-1.1-0.5-2.2-0.9-3.4-1.1c-1.6-0.3-3.2-0.6-4.8-0.8c-1.6-0.2-3.2-0.3-4.9-0.2c-1.2,0-2.5,0.2-3.7,0.4
	c-1,0.2-1.4,0.6-1.2,1.1c0,0.2,0,0.5-0.1,0.7c0,0.3-0.1,0.6-0.1,0.8c-2.5-1.7-5.2-3.1-8-4.1c-2.1-0.8-4.3-1.4-6.6-1.7
	c-2.1,0.3-4,1.3-5.5,2.8c-1.9,1.9-3.5,4-4.7,6.3c-0.6,1.1-1.2,2.3-1.8,3.6c-0.6,0.7-1.1,1.6-1.3,2.6c-0.2,0.8-0.4,1.6-0.7,2.6
	c-0.6,1.8-1.1,3.6-1.6,5.5l-0.2,0.6c-1.1,3.6-2.4,7.2-3.8,10.7c-1.3,3.2-3,6.3-5,9.1c-1.9,2.6-3.8,3.8-5.9,3.8c-1.3,0-2.5-0.9-3-2.2
	c-0.8-1.7-1.3-3.6-1.5-5.5c-0.3-2.5-0.4-5-0.3-7.5c0.1-2.8,0.3-5.5,0.5-8.2c0.3-2.7,0.6-5.2,1-7.4c0.3-1.8,0.7-3.7,1.2-5.5
	c0.1-0.8-0.3-1.5-0.9-2c-0.9-0.8-1.9-1.5-3-1.9c-1.4-0.6-2.8-1.1-4.2-1.4c-1.5-0.4-2.9-0.6-4.4-0.8c-1.2-0.1-2.4-0.1-3.6,0.2
	c-0.8,0.1-1.5,0.7-1.7,1.5c-0.6,2.9-1,5.8-1.3,8.7c-0.6,2.1-1.4,4.9-2.4,8.4c-1.1,3.6-2.5,7.2-4,10.6c-1.3,3.2-3,6.3-5,9.1
	c-1.8,2.6-3.8,3.8-5.8,3.8c-1.3-0.1-2.4-0.9-2.9-2c-1-1.7-1.8-3.5-2.2-5.3c-0.7-2.6-1.2-5.2-1.5-7.8c-0.4-3-0.7-6-0.8-9.2
	c1.5-1.7,3.3-3.7,5.3-6.2c2.2-2.7,4.2-5.6,5.9-8.7c2.1-3.7,3.8-7.5,5.2-11.5c1.6-4.6,2.7-9.4,3.2-14.2c0.4-2.8-0.7-5.7-2.9-7.5
	c-2.6-2.1-5.6-3.6-8.8-4.5c-1.4-0.2-2.9-0.5-4.5-0.8C100.6,0.1,99,0,97.5,0.3c-1.8,0.4-3.4,1.2-4.7,2.4c-2,1.9-3.5,4.1-4.6,6.5
	c-2,4.2-3.4,8.6-4.3,13.1c-1.1,5.4-1.7,11-1.9,16.5c-0.2,5.8,0.1,11.6,0.9,17.4c0.7,5.4,2,10.8,4.1,15.8c1.7,4.4,4.4,8.4,7.7,11.8
	c3.1,3.1,7.2,4.9,11.6,5.2c2.8,0.1,5.5-0.9,7.7-2.7c3-2.4,5.6-5.3,7.6-8.6c0.8-1.2,1.6-2.5,2.3-3.9c0.7,3.5,1.6,6,2.9,7.2
	c2.2,2.3,4.8,4.2,7.6,5.8c2.9,1.4,6.1,2.2,9.4,2.4c3,0.2,6-0.7,8.4-2.5c3.1-2.4,5.8-5.3,7.9-8.6c0.1-0.1,0.1-0.3,0.2-0.4
	c0.2,0.2,0.3,0.5,0.5,0.7c1.1,1.6,2.5,3,4,4.1c1.9,1.5,3.9,2.7,6.1,3.7c2.5,1.1,5.2,1.8,8,1.9c1.6,0.1,3.2-0.4,4.4-1.4
	c1.6-1.3,3-2.7,4.1-4.4l-0.6,9.5c-3,1.8-6,3.4-8.9,5s-6.1,3.2-9.6,5c-1.4,0.6-2.4,1.8-2.8,3.3c-0.5,2.8,1.1,5.5,3.8,6.3
	c1.6,0.4,3.4,0.1,4.7-0.8c1.6-0.7,3.5-1.6,5.6-2.7l6.6-3.3c-0.2,3.9-0.2,7.1-0.2,9.5s0.2,3.7,0.5,3.8c0,0.3,0.4,0.7,1.3,1.2
	c1.1,0.6,2.2,1.1,3.3,1.5c1.3,0.5,2.8,1,4.3,1.5c1.5,0.5,2.9,0.9,4.2,1.1c1,0.2,2,0.4,3.1,0.4c0.8,0,1-0.2,0.8-0.7
	c-0.2-0.1-0.2-0.9-0.2-2.5c0-1.6,0-3.6,0.1-6.2c0.1-2.6,0.2-5.6,0.4-9c0.2-3.4,0.3-7.1,0.5-11c3.9-2.6,7.5-5.4,11-8.5
	c3.6-3.2,6.8-6.7,9.7-10.5c3-4,5.6-8.3,7.6-12.9c2.2-5,3.9-10.3,5-15.7c0.2-1.3-0.2-2.6-1.1-3.6C235.2,42.1,234.1,41.5,232.9,41.2z
	 M99.1,32.3c0.2-2.2,0.5-4.5,0.9-6.7c1-5,2.2-8.9,3.7-11.5c1.5-2.6,2.8-3.9,3.9-4c0.3,0,0.6,0.7,0.8,2c0.2,2,0,3.9-0.4,5.9
	c-0.6,3.2-1.6,6.4-2.8,9.5c-1.8,4.4-4,8.7-6.6,12.7C98.7,37.5,98.9,34.9,99.1,32.3z M188.9,51c0,1.5-0.1,3-0.3,4.6
	c-0.5,3-1.3,6-2.3,8.8c-0.8,2.3-1.9,4.5-3.1,6.6c-0.9,1.5-2,2.9-3.2,4.1c-0.7,0.8-1.6,1.3-2.6,1.4c-1.6,0.1-3-1-3.2-2.6
	c-0.5-2.1-0.6-4.3-0.2-6.5c0.4-2.8,1-5.7,1.9-8.4c0.9-2.9,2-5.6,3.3-8.3c1.1-2.2,2.3-4.4,3.8-6.4c1.3-1.7,2.6-2.5,3.7-2.4
	c0.7,0.1,1.2,0.6,1.7,1.5c0.5,1,0.8,2,1,3.1C189.1,48,189,49.5,188.9,51L188.9,51z"/>
<g>
	<g>
		<g>
			<path class="st1" d="M127.9,19.8c0.9,1,2,1.8,3.2,2.3c1.4,0.6,2.8,1,4.3,1.1c1.7,0.1,3.3,0,4.9-0.4c3.1-0.7,5.9-2.5,8-4.9
				c0.9-1.1,1.6-2.3,2-3.6c0.4-1.3,0.4-2.7,0.1-4c-0.6-2.7-2.5-4.9-5-5.8c-2.9-1.2-6.1-1.5-9.2-0.7c-1.6,0.4-3.2,1-4.6,1.9
				c-1.3,0.8-2.5,1.8-3.4,2.9c-0.9,1.1-1.5,2.3-1.9,3.7c-0.4,1.3-0.4,2.7-0.1,4C126.5,17.6,127,18.8,127.9,19.8z"/>
		</g>
		<g>
			<g>
				<path class="st1" d="M338.5,75.4c-1.2-4.9-2.7-10.4-4.4-16.5c-1.7-6.1-3.5-12.4-5.3-18.7s-3.7-12.5-5.5-18.5s-3.4-11.2-4.9-15.8
					c0-0.2-0.1-0.4-0.2-0.5c0.3-0.4,0.1-0.9-0.8-1.4c-1.1-0.6-2.3-1.2-3.5-1.6c-1.6-0.6-3.3-1-5-1.4c-1.8-0.4-3.6-0.7-5.2-0.9
					C302.4,0,301,0,299.6,0.1c-1.1,0.1-1.7,0.5-1.8,1c-1.9,4.5-4.1,9.7-6.5,15.5s-4.9,12-7.4,18.2s-5,12.5-7.4,18.7
					s-4.6,11.7-6.4,16.6c-1.8,4.9-3.2,8.9-4.3,11.9s-1.4,4.7-1.2,5c-0.2,0.3,0.2,0.7,1.1,1.3c0.9,0.5,2.1,1.1,3.5,1.7
					c1.4,0.7,3,1.3,4.7,1.8c1.6,0.5,3.1,1,4.7,1.3c1.2,0.3,2.4,0.4,3.6,0.4c0.9,0,1.4-0.3,1.4-0.9c-0.1-0.1,0-0.6,0.4-1.6
					s0.8-2.3,1.3-4c0.6-1.7,1.2-3.6,2-5.9c0.8-2.2,1.7-4.7,2.7-7.5c1.5,0,3.5-0.1,6.1-0.2c2.5-0.1,5.1-0.3,7.8-0.5
					c2.7-0.2,5.2-0.4,7.7-0.7s4.5-0.5,5.9-0.8c0.7,3,1.2,5.7,1.7,8.2s0.9,4.7,1.3,6.6c0.4,1.9,0.6,3.4,0.8,4.5
					c0.2,1.1,0.2,1.7,0.2,1.8c-0.2,0.6,0.3,1,1.3,1.3c1.2,0.3,2.5,0.5,3.8,0.5c1.7,0.1,3.3,0.1,5-0.1c1.8-0.1,3.5-0.3,5-0.5
					c1.3-0.1,2.6-0.4,3.8-0.7c1-0.3,1.5-0.6,1.4-0.9c0.2-0.2,0-1.9-0.6-5C340.6,84.2,339.7,80.2,338.5,75.4z M311.7,60.7
					c-1.5,0-3.1,0-5,0l-5.9,0.1c-2,0-4.1,0.1-6.1,0.2c2.1-5.3,4.2-10.8,6.3-16.4s4.2-10.9,6.3-15.9c1.3,5,2.7,10.2,4,15.7
					c1.3,5.5,2.6,11,3.8,16.3C314.3,60.7,313.2,60.7,311.7,60.7z"/>
			</g>
		</g>
		<g>
			<g>
				<path class="st1" d="M673.1,43.3c-0.8-0.9-1.9-1.4-3.1-1.5c-2.9-0.4-5.6,1.6-6.1,4.4c-0.9,3.6-2.6,7-4.8,10
					c-2,2.6-4.4,4.8-7.1,6.6c-1.3-2.1-2.9-3.9-4.7-5.6c-1.9-1.7-3.8-3.4-5.6-5s-3.7-3.3-5.4-5c-1.6-1.6-3-3.4-4-5.5
					c-1-2-1.4-4.2-1.4-6.5c0.2-2.8,1-5.6,2.5-8c0.5-0.8,0.1-1.5-1.3-2c-1.5-0.6-3-0.9-4.6-1c-1.7-0.1-3.5,0.1-5.2,0.5
					c-1.7,0.4-2.6,1.2-2.9,2.2c-1,3.8-1.7,7.7-2.1,11.7c-0.3,2.3-0.3,4.7-0.1,7v0.1c-0.6,2.2-1.4,5-2.5,8.6
					c-1.1,3.6-2.4,7.2-3.8,10.7c-1.3,3.2-3,6.3-5,9.1c-1.8,2.6-3.8,3.8-5.9,3.8c-1.5,0-2.6-1.5-3.4-4.6c-0.8-3.9-1.3-7.8-1.4-11.8
					c-0.2-4.8-0.2-10,0.1-15.8s0.6-11.3,1-16.6c0.4-5.3,1-10.1,1.6-14.3c0.4-3,0.9-5.9,1.6-8.8c0.2-0.7-0.2-1.3-1-1.9
					c-1-0.7-2.1-1.2-3.3-1.6c-1.5-0.5-3.1-0.8-4.6-1c-1.6-0.2-3.2-0.3-4.9-0.2c-1.3,0-2.6,0.2-3.9,0.6c-1.1,0.4-1.7,0.9-1.9,1.6
					c-0.6,6.1-1,11.8-1.3,17.2s-0.6,10.5-0.7,15.3c-2.5-1.6-5.2-3-8-4c-2.1-0.8-4.3-1.4-6.5-1.7c-2.1,0.3-4,1.3-5.5,2.8
					c-1.9,1.9-3.5,4-4.7,6.3c-1.5,2.7-2.8,5.6-3.8,8.6c-1.1,3.1-1.9,6.3-2.5,9.5c-0.1,0.4-0.1,0.9-0.2,1.3c-0.6,1.6-1.3,3.1-2,4.6
					c-1.3,2.9-2.9,5.7-4.9,8.2c-1.8,2.3-3.8,3.4-5.8,3.4c-1.2,0-2.3-0.8-2.6-2c-0.6-1.6-1-3.4-1.1-5.1c-0.2-2.3-0.1-4.7,0.1-7
					c0.2-2.6,0.5-5.1,0.8-7.6c0.4-2.5,0.7-4.9,1.1-7.1c0.4-2.2,0.8-4,1.1-5.3c0.4-1.3,0.1-2.7-0.8-3.8c-1-1-2.3-1.7-3.7-2
					c-1.8-0.4-3.6-0.6-5.5-0.7c-2,0-4,0-6,0.2c-2,0.2-3.8,0.4-5.4,0.7s-2.9,0.5-3.7,0.5c-0.4,0.1-0.6,0-0.5-0.3
					c0.1-0.2,0.1-0.4,0.1-0.7c0.2-0.9,0.3-1.8,0.4-2.7c0.1-1,0.2-1.9,0.4-2.8c0.2-1,0.3-2.1,0.4-3.1c0.3-0.7,0.2-1.6-0.4-2.2
					c-0.7-0.7-1.5-1.3-2.4-1.7c-1.1-0.5-2.2-0.8-3.4-0.9c-1.2-0.2-2.3-0.1-3.5,0.1c-1,0.2-1.9,0.6-2.6,1.2c-0.7,0.7-1,1.6-0.8,2.6
					c0.4,3.7,0.6,7.3,0.7,10.8c0,3.5-0.4,7-1.3,10.4c0,0.1,0,0.3,0,0.4c-0.5,1.9-1.2,4.3-2.1,7.2c-1.1,3.6-2.4,7.2-3.8,10.7
					c-1.3,3.2-3,6.3-5,9.1c-1.8,2.6-3.8,3.8-5.9,3.8c-1.1,0-2.1-0.6-2.6-1.6c-0.8-1.4-1.4-2.9-1.6-4.4c-0.4-2.2-0.6-4.5-0.6-6.7
					c0-2.8,0.2-5.7,0.5-8.5c0.2-1.8,0.4-3.3,0.6-4.5c0.2-1.2,0.4-2.5,0.7-3.7c0.3-1.2,0.6-2.5,1-4s0.9-3.2,1.5-5.3
					c0.1-0.8-0.2-1.5-0.8-2c-0.9-0.8-1.9-1.5-3-1.9c-1.4-0.6-2.8-1.1-4.3-1.4c-1.4-0.3-2.9-0.6-4.4-0.7c-1.2-0.1-2.4-0.1-3.5,0.2
					c-0.8,0.1-1.5,0.7-1.7,1.5l-0.5,2.2c-2.7-2-5.6-3.6-8.6-4.7c-2.3-1-4.7-1.6-7.2-2c-2.1,0.3-4,1.3-5.5,2.8
					c-1.9,1.9-3.5,4-4.7,6.3c-1.5,2.7-2.8,5.6-3.8,8.6c-0.5,1.4-0.9,2.7-1.2,4.1c-0.5,0.6-1.1,1-1.8,1.4c-1.6,1.1-3.8,1.3-5.6,0.5
					c-1.9-1.1-3.4-2.8-4.1-4.8c-1.1-2.5-1.4-5.2-1-7.9l1.6-7.6c0.2-0.4,0.1-0.8-0.5-1.1c-0.8-0.4-1.6-0.8-2.4-1
					c-1.1-0.3-2.3-0.5-3.4-0.7c-1.3-0.2-2.5-0.3-3.5-0.3c-0.9-0.1-1.8,0-2.7,0.2c-0.7,0.2-1.1,0.4-1,0.8l-0.5,11.5
					c-0.1,0.5-0.1,1-0.1,1.4c-0.2,3.7-0.6,7.4-1.2,11.1c-0.5,3.4-1.2,6.8-2.1,10.1c-0.7,2.5-1.6,5-2.8,7.4c-1,1.9-2.1,2.9-3.2,3
					c-1.2,0.1-2.3-0.7-2.7-1.9c-0.7-1.6-1.1-3.4-1.1-5.2c-0.2-2.4-0.2-4.8,0-7.1c0.2-2.7,0.4-5.3,0.8-7.9s0.7-5,1.1-7.3
					c0.4-2.2,0.8-4,1.1-5.4c0.2-1-0.5-2.1-2.2-3.1c-1.9-1.1-3.9-1.9-5.9-2.4c-2-0.6-4.2-0.8-6.3-0.8c-2,0.1-3.1,0.7-3.3,1.8
					c-0.5,2.6-0.9,5.2-1.2,7.9c-0.3,3-0.6,6.2-0.7,9.5c-0.4,2.9-0.9,5.6-1.5,8.2c-0.5,2.3-1.2,4.6-1.9,6.8c-0.5,1.7-1.3,3.3-2.2,4.7
					c-0.5,1-1.4,1.7-2.5,1.9c-1.2,0.1-2.3-0.7-2.7-1.9c-0.6-1.6-1-3.3-1-5.1c-0.2-2.4-0.1-4.8,0.1-7.1c0.2-2.7,0.5-5.3,0.8-7.9
					s0.7-5,1.2-7.3c0.4-2.2,0.8-4,1-5.4c0.2-1-0.5-2.1-2.2-3.1c-1.9-1.1-3.9-1.9-5.9-2.4c-2-0.6-4.2-0.8-6.3-0.8
					c-2,0.1-3.1,0.7-3.3,1.8c-0.7,3.7-1.2,7.5-1.5,11.2c-0.4,4.4-0.5,8.8-0.4,13.3c0.1,4,0.4,8,1.1,11.9c0.6,3.6,1.5,6,2.8,7.3
					c1.3,1.3,2.4,2.4,3.5,3.2c1,0.8,2.1,1.6,3.2,2.2c1.1,0.6,2.3,1.1,3.6,1.4c1.6,0.4,3.2,0.7,4.9,0.8c2.4,0.2,4.9-0.7,6.6-2.4
					c2.3-2.2,4.1-4.9,5.4-7.8c0.3,1,0.9,1.8,1.6,2.5c1.3,1.3,2.4,2.4,3.4,3.2c1,0.8,2,1.6,3.1,2.2c1.1,0.6,2.3,1.1,3.6,1.4
					c1.6,0.4,3.2,0.7,4.9,0.8c2.2,0.2,4.4-0.4,6.1-1.7c2.1-1.6,4-3.6,5.5-5.8c1.9-2.8,3.4-5.7,4.7-8.8c1.4-3.5,2.7-7.1,3.7-10.7
					c2.5,1.9,5.4,3.1,8.5,3.4c1.8,0.2,3.6,0.1,5.3-0.3c0,0.8-0.1,1.6-0.1,2.4c-0.1,2.7,0.3,5.4,1.1,7.9c0.4,1.2,1,2.3,1.8,3.3
					c1.1,1.6,2.5,3,4,4.1c1.9,1.5,3.9,2.7,6.1,3.7c2.5,1.1,5.2,1.8,8,1.9c2.1,0.2,4-0.7,5.9-2.6c2.1-2.3,4-4.9,5.5-7.6
					c0.3,1.2,0.9,2.4,1.8,3.4c2.2,2.3,4.8,4.2,7.6,5.8c2.9,1.4,6.1,2.2,9.4,2.4c2.8,0.2,5.7-0.9,8.8-3.4c3.3-2.8,6.2-6.2,8.5-9.9
					c2.8-4.4,5-9,6.8-13.9c1.6-4.4,2.8-9,3.5-13.7c1.1-0.4,2.2-0.7,3.3-0.9c0.8-0.2,1.7-0.3,2.6-0.1c0.8,0.2,1.3,0.9,1.4,1.7
					c0.2,1,0.3,2,0.3,3.1c0,1-0.1,2-0.2,3.1c-0.2,1-0.2,1.5-0.2,1.6v0.4c-0.3,4.6-0.3,9.2,0.1,13.7c0.3,3.3,1.2,6.6,2.9,9.5
					c1.6,2.5,3.8,4.6,6.5,5.8c3.5,1.6,7.2,2.6,11,3.1c2,0.2,4-0.2,5.8-1.3c2.2-1.2,4.2-2.8,5.9-4.6c1.5-1.6,2.9-3.3,4.2-5.2
					c0,0.1,0.1,0.1,0.1,0.2c1.1,1.6,2.5,3,4,4.1c1.9,1.5,3.9,2.7,6,3.7c2.5,1.1,5.2,1.8,8,1.9c2.3,0.2,4.5-0.9,6.5-3.2
					c2.4-2.8,4.5-5.9,6.2-9.2c0.7,2.7,1.5,4.5,2.5,5.4c2.2,2.3,4.8,4.2,7.6,5.8c2.9,1.4,6.1,2.2,9.4,2.4c3,0.2,6-0.7,8.3-2.6
					c3.1-2.4,5.8-5.3,7.9-8.6c2.7-4.3,4.9-8.9,6.6-13.7c0.5-1.4,1-2.9,1.5-4.4c0.7,1,1.5,1.9,2.3,2.8c1.6,1.9,3.2,3.5,4.7,5
					c1.3,1.2,2.5,2.6,3.6,4c-1.8,0.8-3.4,1.6-4.9,2.4c-1.4,0.7-2.7,1.6-3.8,2.7c-1,1-1.9,2.2-2.4,3.5c-0.6,1.4-0.8,2.9-0.7,4.4
					c0,1.8,0.8,3.6,2.3,4.6c1.6,1,3.5,1.6,5.4,1.6c2.4,0,4.8-0.4,7.1-1.1c2.6-0.8,5.1-1.9,7.4-3.4c2.3-1.4,4.4-3.2,6.2-5.2
					c1.7-1.8,3-4.1,3.7-6.5c2-1.1,3.8-2.3,5.6-3.7c2-1.6,3.8-3.5,5.3-5.6c1.8-2.5,3.4-5.2,4.7-8c1.6-3.4,2.9-7,3.8-10.7
					C674.3,45.6,674,44.3,673.1,43.3z M458.1,51.2c0,0.8-0.1,1.6-0.2,2.5c-0.4,3.3-1.1,6.5-2.2,9.6c-0.9,2.5-1.9,4.9-3.2,7.1
					c-0.9,1.6-2,3.2-3.4,4.5c-0.7,0.8-1.6,1.4-2.7,1.6c-1.6,0.1-3-1-3.2-2.6c-0.5-2.1-0.6-4.3-0.2-6.5c0.4-2.8,1-5.7,1.9-8.4
					c0.9-2.8,1.9-5.6,3.2-8.3c1.1-2.2,2.3-4.4,3.8-6.4c1.3-1.7,2.6-2.5,3.7-2.4c0.9,0.1,1.6,0.9,2.1,2.3c0.5,1.4,0.8,2.9,0.8,4.4
					C458.3,49.6,458.2,50.4,458.1,51.2L458.1,51.2z M577.7,53.9c-0.4,3.2-1.2,6.4-2.3,9.5c-0.9,2.5-2,4.9-3.4,7.1
					c-1,1.6-2.1,3.2-3.5,4.5c-0.7,0.8-1.7,1.4-2.8,1.6c-1.6,0.1-3-1-3.2-2.6c-0.5-2.1-0.6-4.3-0.2-6.5c0.4-2.8,1-5.7,1.9-8.4
					c0.9-2.8,1.9-5.6,3.2-8.3c1.1-2.2,2.3-4.4,3.8-6.4c1.3-1.7,2.6-2.5,3.7-2.4c0.7,0.1,1.2,0.6,1.7,1.6c0.5,1,0.9,2.2,1,3.3
					L577.7,53.9z"/>
			</g>
		</g>
	</g>
</g>
<g id="_2020">
	<g>
		<path class="st0" d="M595.4,117.4c0-0.6,0.1-1.1,0.2-1.7c0.1-0.6,0.3-1.1,0.5-1.7c0.3-0.6,0.7-1.1,1.2-1.6
			c0.6-0.6,1.3-1.1,2.1-1.4c0.5-0.3,0.9-0.5,1.4-0.7c0.5-0.2,1-0.5,1.4-0.8c0.4-0.3,0.8-0.6,1.1-1c0.3-0.4,0.4-0.8,0.4-1.3
			c0-0.4-0.1-0.8-0.3-1.2c-0.3-0.4-0.6-0.8-1.1-1c-0.5-0.3-1.2-0.4-1.8-0.4c-0.5,0-0.9,0.1-1.4,0.2c-0.4,0.1-0.8,0.3-1.1,0.5
			c-0.3,0.2-0.6,0.4-0.8,0.7l-0.5,0.5l-1-1.1c0.2-0.2,0.3-0.4,0.5-0.5c0.3-0.3,0.7-0.5,1.1-0.8c0.5-0.3,1-0.5,1.6-0.7
			c0.6-0.2,1.3-0.3,2-0.3c0.9,0,1.7,0.2,2.5,0.5c0.6,0.3,1.2,0.8,1.6,1.4c0.4,0.6,0.6,1.2,0.6,1.9c0,0.6-0.2,1.2-0.5,1.8
			c-0.3,0.5-0.6,0.9-1.1,1.2c-0.4,0.3-0.9,0.6-1.4,0.9c-0.5,0.3-0.9,0.5-1.3,0.7c-0.7,0.3-1.3,0.7-1.9,1.1c-0.5,0.3-0.9,0.7-1.2,1.1
			c-0.3,0.3-0.5,0.7-0.7,1.1c-0.2,0.3-0.3,0.7-0.3,1.1h8.6v1.5L595.4,117.4z"/>
		<path class="st0" d="M620.3,110.5c0,1.3-0.2,2.5-0.8,3.7c-0.5,1-1.2,1.9-2.2,2.5c-1.9,1.2-4.3,1.2-6.2,0c-0.9-0.6-1.7-1.5-2.2-2.5
			c-1.1-2.4-1.1-5,0-7.4c0.5-1,1.2-1.9,2.2-2.6c1.9-1.2,4.3-1.2,6.2,0c0.9,0.6,1.7,1.5,2.2,2.6C620,107.9,620.3,109.2,620.3,110.5z
			 M618.6,110.5c0-1-0.2-2-0.5-3c-0.3-0.8-0.9-1.5-1.5-2c-0.7-0.5-1.5-0.7-2.3-0.7c-0.8,0-1.6,0.2-2.3,0.7c-0.7,0.5-1.2,1.2-1.5,2
			c-0.8,1.9-0.8,4,0,5.9c0.3,0.8,0.9,1.5,1.5,2c1.4,1,3.2,1,4.6,0c0.7-0.5,1.2-1.2,1.5-2C618.4,112.5,618.6,111.5,618.6,110.5
			L618.6,110.5z"/>
		<path class="st0" d="M622.6,117.4c0-0.6,0-1.1,0.1-1.7c0.1-0.6,0.3-1.1,0.5-1.7c0.3-0.6,0.7-1.1,1.2-1.6c0.6-0.6,1.3-1.1,2.1-1.4
			c0.5-0.3,0.9-0.5,1.4-0.7c0.5-0.2,1-0.5,1.4-0.8c0.4-0.3,0.8-0.6,1.1-1c0.3-0.4,0.4-0.8,0.4-1.3c0-0.4-0.1-0.8-0.3-1.2
			c-0.2-0.4-0.6-0.8-1.1-1c-0.5-0.3-1.2-0.4-1.8-0.4c-0.5,0-0.9,0.1-1.4,0.2c-0.4,0.1-0.8,0.3-1.1,0.5c-0.3,0.2-0.6,0.4-0.8,0.7
			c-0.2,0.2-0.4,0.4-0.6,0.5l-1-1.1c0.2-0.2,0.3-0.4,0.5-0.5c0.3-0.3,0.7-0.5,1.1-0.8c0.5-0.3,1-0.5,1.6-0.7c0.6-0.2,1.3-0.3,2-0.3
			c0.9,0,1.7,0.2,2.5,0.5c0.7,0.3,1.2,0.8,1.6,1.4c0.4,0.6,0.5,1.2,0.5,1.9c0,0.6-0.1,1.2-0.4,1.7c-0.3,0.5-0.6,0.9-1.1,1.2
			c-0.4,0.3-0.9,0.6-1.4,0.9c-0.5,0.3-0.9,0.5-1.3,0.7c-0.7,0.3-1.3,0.7-1.9,1.1c-0.5,0.3-0.9,0.7-1.2,1.1c-0.3,0.3-0.5,0.7-0.7,1.1
			c-0.2,0.3-0.3,0.7-0.3,1.1h8.6v1.5L622.6,117.4z"/>
		<path class="st0" d="M647.4,110.5c0,1.3-0.2,2.5-0.8,3.7c-0.5,1-1.2,1.9-2.2,2.5c-1.9,1.2-4.3,1.2-6.2,0c-0.9-0.6-1.7-1.5-2.1-2.5
			c-1.1-2.4-1.1-5,0-7.4c0.5-1,1.2-1.9,2.1-2.6c1.9-1.2,4.3-1.2,6.2,0c0.9,0.6,1.7,1.5,2.2,2.6C647.2,107.9,647.5,109.2,647.4,110.5
			z M645.8,110.5c0-1-0.2-2.1-0.6-3c-0.3-0.8-0.8-1.5-1.5-2c-0.7-0.5-1.5-0.7-2.3-0.7c-0.8,0-1.6,0.2-2.3,0.7
			c-0.7,0.5-1.2,1.2-1.5,2c-0.7,1.9-0.7,4,0,5.9c0.3,0.8,0.9,1.5,1.5,2c1.4,1,3.2,1,4.6,0c0.7-0.5,1.2-1.2,1.5-2
			C645.6,112.5,645.8,111.5,645.8,110.5z"/>
	</g>
	<g>
		<path class="st2" d="M595.4,117.4c0-0.6,0.1-1.1,0.2-1.7c0.1-0.6,0.3-1.1,0.5-1.7c0.3-0.6,0.7-1.1,1.2-1.6
			c0.6-0.6,1.3-1.1,2.1-1.4c0.5-0.3,0.9-0.5,1.4-0.7c0.5-0.2,1-0.5,1.4-0.8c0.4-0.3,0.8-0.6,1.1-1c0.3-0.4,0.4-0.8,0.4-1.3
			c0-0.4-0.1-0.8-0.3-1.2c-0.3-0.4-0.6-0.8-1.1-1c-0.5-0.3-1.2-0.4-1.8-0.4c-0.5,0-0.9,0.1-1.4,0.2c-0.4,0.1-0.8,0.3-1.1,0.5
			c-0.3,0.2-0.6,0.4-0.8,0.7l-0.5,0.5l-1-1.1c0.2-0.2,0.3-0.4,0.5-0.5c0.3-0.3,0.7-0.5,1.1-0.8c0.5-0.3,1-0.5,1.6-0.7
			c0.6-0.2,1.3-0.3,2-0.3c0.9,0,1.7,0.2,2.5,0.5c0.6,0.3,1.2,0.8,1.6,1.4c0.4,0.6,0.6,1.2,0.6,1.9c0,0.6-0.2,1.2-0.5,1.8
			c-0.3,0.5-0.6,0.9-1.1,1.2c-0.4,0.3-0.9,0.6-1.4,0.9c-0.5,0.3-0.9,0.5-1.3,0.7c-0.7,0.3-1.3,0.7-1.9,1.1c-0.5,0.3-0.9,0.7-1.2,1.1
			c-0.3,0.3-0.5,0.7-0.7,1.1c-0.2,0.3-0.3,0.7-0.3,1.1h8.6v1.5L595.4,117.4z"/>
		<path class="st2" d="M620.3,110.5c0,1.3-0.2,2.5-0.8,3.7c-0.5,1-1.2,1.9-2.2,2.5c-1.9,1.2-4.3,1.2-6.2,0c-0.9-0.6-1.7-1.5-2.2-2.5
			c-1.1-2.4-1.1-5,0-7.4c0.5-1,1.2-1.9,2.2-2.6c1.9-1.2,4.3-1.2,6.2,0c0.9,0.6,1.7,1.5,2.2,2.6C620,107.9,620.3,109.2,620.3,110.5z
			 M618.6,110.5c0-1-0.2-2-0.5-3c-0.3-0.8-0.9-1.5-1.5-2c-0.7-0.5-1.5-0.7-2.3-0.7c-0.8,0-1.6,0.2-2.3,0.7c-0.7,0.5-1.2,1.2-1.5,2
			c-0.8,1.9-0.8,4,0,5.9c0.3,0.8,0.9,1.5,1.5,2c1.4,1,3.2,1,4.6,0c0.7-0.5,1.2-1.2,1.5-2C618.4,112.5,618.6,111.5,618.6,110.5
			L618.6,110.5z"/>
		<path class="st2" d="M622.6,117.4c0-0.6,0-1.1,0.1-1.7c0.1-0.6,0.3-1.1,0.5-1.7c0.3-0.6,0.7-1.1,1.2-1.6c0.6-0.6,1.3-1.1,2.1-1.4
			c0.5-0.3,0.9-0.5,1.4-0.7c0.5-0.2,1-0.5,1.4-0.8c0.4-0.3,0.8-0.6,1.1-1c0.3-0.4,0.4-0.8,0.4-1.3c0-0.4-0.1-0.8-0.3-1.2
			c-0.2-0.4-0.6-0.8-1.1-1c-0.5-0.3-1.2-0.4-1.8-0.4c-0.5,0-0.9,0.1-1.4,0.2c-0.4,0.1-0.8,0.3-1.1,0.5c-0.3,0.2-0.6,0.4-0.8,0.7
			c-0.2,0.2-0.4,0.4-0.6,0.5l-1-1.1c0.2-0.2,0.3-0.4,0.5-0.5c0.3-0.3,0.7-0.5,1.1-0.8c0.5-0.3,1-0.5,1.6-0.7c0.6-0.2,1.3-0.3,2-0.3
			c0.9,0,1.7,0.2,2.5,0.5c0.7,0.3,1.2,0.8,1.6,1.4c0.4,0.6,0.5,1.2,0.5,1.9c0,0.6-0.1,1.2-0.4,1.7c-0.3,0.5-0.6,0.9-1.1,1.2
			c-0.4,0.3-0.9,0.6-1.4,0.9c-0.5,0.3-0.9,0.5-1.3,0.7c-0.7,0.3-1.3,0.7-1.9,1.1c-0.5,0.3-0.9,0.7-1.2,1.1c-0.3,0.3-0.5,0.7-0.7,1.1
			c-0.2,0.3-0.3,0.7-0.3,1.1h8.6v1.5L622.6,117.4z"/>
		<path class="st2" d="M647.4,110.5c0,1.3-0.2,2.5-0.8,3.7c-0.5,1-1.2,1.9-2.2,2.5c-1.9,1.2-4.3,1.2-6.2,0c-0.9-0.6-1.7-1.5-2.1-2.5
			c-1.1-2.4-1.1-5,0-7.4c0.5-1,1.2-1.9,2.1-2.6c1.9-1.2,4.3-1.2,6.2,0c0.9,0.6,1.7,1.5,2.2,2.6C647.2,107.9,647.5,109.2,647.4,110.5
			z M645.8,110.5c0-1-0.2-2.1-0.6-3c-0.3-0.8-0.8-1.5-1.5-2c-0.7-0.5-1.5-0.7-2.3-0.7c-0.8,0-1.6,0.2-2.3,0.7
			c-0.7,0.5-1.2,1.2-1.5,2c-0.7,1.9-0.7,4,0,5.9c0.3,0.8,0.9,1.5,1.5,2c1.4,1,3.2,1,4.6,0c0.7-0.5,1.2-1.2,1.5-2
			C645.6,112.5,645.8,111.5,645.8,110.5z"/>
	</g>
</g>
</svg>
